<?xml version="1.0" encoding="UTF-8" standalone="no"?>
<!-- Creator: CorelDRAW (Evaluation Version) -->

<svg
   xml:space="preserve"
   width="1.9in"
   height="1.9in"
   version="1.1"
   style="clip-rule:evenodd;fill-rule:evenodd;image-rendering:optimizeQuality;shape-rendering:geometricPrecision;text-rendering:geometricPrecision"
   viewBox="0 0 1900 1900.0016"
   id="svg120"
   xmlns="http://www.w3.org/2000/svg"
   xmlns:svg="http://www.w3.org/2000/svg">
 <defs
   id="defs1"><style
     type="text/css"
     id="style1">
   <![CDATA[
    .str1 {stroke:#373535;stroke-width:9.84;stroke-miterlimit:22.9256}
    .str2 {stroke:#373535;stroke-width:3.94;stroke-miterlimit:22.9256}
    .str3 {stroke:#373535;stroke-width:9.84;stroke-miterlimit:22.9256;stroke-dasharray:9.842520 9.842520}
    .str0 {stroke:#373535;stroke-width:5.91;stroke-miterlimit:22.9256;stroke-dasharray:5.905512 5.905512}
    .str4 {stroke:#373535;stroke-width:3.94;stroke-miterlimit:22.9256;stroke-dasharray:3.937008 3.937008}
    .fil1 {fill:none}
    .fil6 {fill:white}
    .fil2 {fill:#373535}
    .fil3 {fill:#00B0F0}
    .fil0 {fill:#373535;fill-rule:nonzero}
    .fil7 {fill:#00B0F0;fill-rule:nonzero}
    .fil5 {fill:#0098DB;fill-rule:nonzero}
    .fil4 {fill:#3051A1;fill-rule:nonzero}
   ]]>
  </style></defs>
 <g
   id="Capa_x0020_1">
  <metadata
   id="CorelCorpID_0Corel-Layer" />
  
  
  
  
  
  
  
  
  
  
  
  
  
  
  
  
  
  
  
  
  
  
  
  
  
  
  
  
  
  
  
  
  
  
  
  
  
  
  
  
  
  
  
  
  
  
  
  
  
  
  
  
  
  
  
  
  
  
  
  
  
  
  
  
  
  
  
  
  
  
  
  
  
  
  
  
  
  
  
  
  
  
  
  
  
  
  
  
  
  
  
  
  
  
  
  
  
  
  
  
  
  
  
  
  
  
  
  
  
  
  
  
  
  
  
  
  
  
  
  
  
  
  
  
  
  
  
  
  
  
  
  
  
  
 <path
   class="fil0"
   d="m 1334.1981,1385.0181 v -72.38 h 52.26 v 8.49 h -42.66 v 22.24 h 39.93 v 8.49 h -39.93 v 24.67 h 44.38 v 8.49 z m 68.65,0 v -10.11 h 10.11 v 10.11 z m 28.29,0 v -72.38 h 9.6 v 72.38 z m 27.89,0 v -10.11 h 10.11 v 10.11 z m 26.87,0 v -72.38 h 32.08 c 6.45,0 11.35,0.66 14.71,1.96 3.35,1.3 6.03,3.59 8.04,6.87 2,3.28 3,6.93 3,10.9 0,5.14 -1.67,9.47 -4.99,12.99 -3.32,3.52 -8.44,5.74 -15.38,6.7 2.54,1.21 4.46,2.43 5.78,3.61 2.8,2.56 5.44,5.78 7.92,9.64 l 12.52,19.71 h -11.96 l -9.57,-15.06 c -2.78,-4.36 -5.09,-7.68 -6.89,-9.99 -1.82,-2.31 -3.44,-3.91 -4.87,-4.83 -1.41,-0.91 -2.88,-1.55 -4.36,-1.92 -1.08,-0.22 -2.85,-0.33 -5.32,-0.33 h -11.09 v 32.15 h -9.61 z m 9.61,-40.44 h 20.56 c 4.38,0 7.78,-0.45 10.24,-1.36 2.46,-0.89 4.33,-2.34 5.59,-4.35 1.28,-1.99 1.92,-4.14 1.92,-6.48 0,-3.42 -1.23,-6.25 -3.7,-8.46 -2.48,-2.21 -6.39,-3.3 -11.73,-3.3 h -22.88 v 23.96 z m 64.61,40.44 v -10.11 h 10.11 v 10.11 z m 26.26,0 v -72.38 h 9.61 v 63.89 h 35.58 v 8.49 z m 58.05,0 v -10.11 h 10.11 v 10.11 z"
   id="path115"
   style="clip-rule:evenodd;display:inline;fill:#ffffff;fill-rule:evenodd;image-rendering:optimizeQuality;shape-rendering:geometricPrecision;text-rendering:geometricPrecision" /><g
   id="g130"
   transform="translate(32.915467)"
   style="display:inline"><circle
     style="clip-rule:evenodd;display:inline;fill:#ffffff;fill-rule:evenodd;stroke-width:18.6046;image-rendering:optimizeQuality;shape-rendering:geometricPrecision;text-rendering:geometricPrecision"
     id="path1"
     cx="959.61243"
     cy="826.79962"
     r="589.25586" /><path
     class="fil3"
     d="m 1455.5881,554.69815 c 44.89,80.97 70.48,174.13 70.48,273.25 0,311.76005 -252.83,564.58995 -564.59007,564.58995 -143.7,0 -274.87,-53.73 -374.54,-142.19 -8.33,-7.4 -326.37,133.65 -248.71,-141.7099 -8.94,174.3799 183.68,96.1699 198.48,91.1599 147.9,-52.5 282.78,-114.74 404.67,-186.6899 2.99,0.3099 6.59,0.07 11.02,-0.92 27.95,-6.21 40.37,4.66 23.29,32.61 -17.08,27.95 -34.16,48.14 -18.63,74.54 15.53,26.39 31.06,66.7699 54.34997,72.9799 23.2901,6.21 41.9301,24.84 32.6101,57.46 -8.82,30.87 -34.3501,78.46 -22.52,101.89 15.83,-1.42 31.47,-3.52 46.87,-6.33 1.48,-7.52 3.17,-13.22 5.17,-14.82 7.76,-6.21 46.58,-27.94 52.8,-40.37 6.21,-12.43 45.03,-23.29 49.69,-45.03 4.66,-21.74 20.19,-29.5 41.93,-37.27 21.74,-7.76 37.26,-13.97 49.69,-51.2399 12.42,-37.26 43.48,-38.81 21.74,-59 -21.74,-20.19 -74.53,-34.17 -85.41,-32.61 -10.87,1.55 0,-27.95 -37.26,-40.38 -37.27,-12.42 -63.67,-26.39005 -76.09,-35.71005 -12.42,-9.32 -45.03,-17.08 -63.66,-15.52 -18.6401,1.55 -29.51007,17.08 -49.69007,18.63 l -1.04,0.08 c 194.20007,-120.07 354.00007,-265.86 479.39007,-437.38 z m 39.31,224.24 c -3.57,-2.74 -7.45,-3.26 -11.44,0.33 -15.53,13.98 -34.17,6.21 -40.38,12.43 -6.2,6.21 -10.87,38.82 -15.53,54.34 -4.66,15.53 -26.4,1.56 -26.4,43.48 0,41.93 -4.66,77.64 12.43,88.51 17.08,10.87 24.84,32.60995 37.26,15.53 5.96,-8.19 14.77,-7.81 22.33,-5.19 15.74,-49.81 24.26,-102.84 24.26,-157.85 0,-17.41 -0.87,-34.61 -2.53,-51.57 z m -44.1,-164.63 c 2.78,15.17 6.46,29.16 10.92,32.98 10.87,9.32 7.18,31.05 -4.95,34.16 -12.13,3.11 -10.58,13.98 -4.37,26.4 6.21,12.42 -13.98,7.76 -17.08,12.42 -3.11,4.65 0,40.37 6.21,48.13 6.21,7.76 23.76,12.43 26.63,3.11 2.87,-9.32 5.98,-48.13 10.63,-46.58 3.41,1.13 4.33,30.55 14.92,43.2 -6.45,-54.25 -21.17,-105.97 -42.91,-153.82 z"
     id="path112" /><path
     class="fil2"
     d="m 961.47803,263.34815 c 178.46007,0 337.59007,82.85 441.06007,212.18 10.41,-9.32 97.7,-116.37 -16.15,-169.35 134.53,11.35 94.77,155.5 44.35,207.81 -120.72,163.15 -255.8,294.83 -403.28,399.34 -3.22,0.33 -6.53,1.14 -9.8401,2.59 -14.02,6.13 -63.66997,9.32 -38.81997,12.43 8.24,1.03 16.98,1.2 25.61997,1.03 -23.75997,16.24 -47.81997,31.8 -72.19997,46.68 0,-15.66 -0.2,-46.09 -21.74,-38.4 -21.74,7.76 -18.64,-24.84 -13.98,-37.27 4.66,-12.43 -24.85,-4.56 -35.71,7.04 -10.87,11.6 -37.27,14.7 -41.93,-11.69 -4.66,-26.4 -6.21,-66.77 26.39,-74.54 32.61,-7.76 62.11,-6.21 72.98,-9.32 10.87,-3.11 17.08,38.82 29.5,45.04 12.42,6.21 9.31,-29.5 15.53,-46.59 6.2,-17.08 48.12997,-31.06 51.23997,-54.35 3.11,-23.29 -7.77,-32.61 10.8701,-40.37 18.63,-7.77 41.93,-3.11 49.69,-20.19 7.76,-17.08 9.32,-24.84 31.06,-23.29 21.74,1.55 51.24,3.11 38.81,-10.87 -12.42,-13.98 -34.16,-21.74 -27.95,-34.17 6.21,-12.43 38.82,-43.48 38.82,-13.98 0,29.5 18.64,62.11 29.5,46.59 10.87,-15.53 -1.55,-34.16 -1.55,-55.9 0,-21.74 -12.42,-26.4 -27.95,-41.93 -15.52,-15.54 -17.08,-60.56 -26.4,-48.14 -9.31,12.42 -17.08,18.63 -32.61,-10.87 -15.53,-29.5 -48.13,-52.8 -49.69,-27.95 -1.55,24.84 10.87,29.5 -3.11,49.69 -13.97,20.19 -27.9401,41.93 -27.9401,60.56 0,18.63 -10.87,-10.87 -21.73997,-29.5 -10.87,-18.63 -24.85,-27.95 -43.48,-38.82 -18.63,-10.87 -13.98,-32.61 9.32,-43.48 23.29,-10.87 34.16,-38.82 45.02997,-21.74 10.87,17.07 31.0501,20.19 32.6101,4.66 1.55,-15.53 -7.76,-21.74 6.21,-32.61 13.98,-10.87 17.09,-45.04 -3.1,-29.5 -20.19,15.52 -34.1701,29.5 -35.7201,9.32 -1.56,-20.19 9.31,-54.35 -9.31997,-38.82 -18.63,15.53 -15.53,34.16 -34.16,32.61 -18.63,-1.56 -31.05,-1.56 -68.32,-9.31 -37.26,-7.77 -45.03,-18.64 -82.3,-17.08 -34.65,1.44 -34.41,-5.16 -82.88,-2.35 -42.99,22.94 -82.41,51.69 -117.2,85.22 v -68.42 c 96.29,-76.36 218.06,-121.98 350.47,-121.98 z m -49.79,725.02 c -127.15,75.16995 -262.44,132.50005 -404.78,174.38995 -69.13,-93.6899 -110.02,-209.47995 -110.02,-334.81995 0,-76.45 15.24,-149.34 42.78,-215.84 h 171.34 v -117.46 c 8.08,-7.13 15.9,-12.74 27.72,-11.96 23.3,1.55 69.88,24.84 52.8,52.8 -17.08,27.95 -26.4,29.5 -18.63,55.9 7.76,26.4 -3.11,59.01 -6.21,76.09 -3.1,17.08 -17.08,60.56 -4.66,91.62 12.43,31.06 40.37,99.38 55.9,113.35 15.52,13.97 -12.42,-55.9 -9.31,-66.77 3.11,-10.87 34.16,27.94 40.37,59.01 6.2,31.05 -20.19,43.48 26.39,63.67 46.58,20.18 52.8,1.55 72.98,20.19 17.93,16.55 48.1,33.09 63.33,39.85 z m 28.29,-106.98 c -13.79,7.6 -3.11,12.78 13.97,14.33 17.08,1.55 48.12997,18.63 54.34997,9.32 6.22,-9.32 -31.05997,-44.2 -68.31997,-23.65 z m 406.83007,-369.21 c -10.96,-0.76 12.42,29.5 21.74,29.5 9.32,0 23.3,-26.4 -21.74,-29.5 z m -5.02,-54.01 c 2.1,8.22 3.33,15 2.15,18.3 -3.34,9.31 -20.43,3.1 -40.61,15.52 -20.19,12.43 -32.61,23.3 -32.61,37.27 0,13.97 -21.74,-3.13 -37.27,-17.09 -15.53,-13.96 -18.63,-62.1 -24.84,-88.5 -6.22,-26.4 -1.56,-40.38 -17.08,-51.24 -15.53,-10.87 -45.03,1.56 -43.48,-15.52 0.57,-6.25 1.34,-13.12 2.1,-19.31 72.63,25.95 137.87,67.47 191.65,120.58 z m -456.17007,-123.02 c -20.81,11.35 -17.08,32.61 -3.11,34.17 13.98,1.55 27.95,15.53 38.82,12.43 10.88,-3.11 27.95,16.43 32.61,0.45 4.66,-15.98 21.74,-34.61 4.66,-33.06 -17.08,1.56 -30.23,-6.21 -39.96,-9.31 -9.72,-3.11 -15.94,-13.98 -33.02,-4.67 z m 214.29007,104.04 c -7.69,10.24 -48.14,4.66 -34.16,10.87 13.98,6.21 17.08,9.31 34.16,26.4 17.08,17.08 38.82,26.4 35.71,9.32 -3.1,-17.09 -9.31,-49.7 3.11,-35.72 12.43,13.97 24.85,4.66 26.4,-3.11 1.55,-7.76 -21.75,-32.61 -26.4,-41.92 -4.66,-9.32 -20.19,-29.5 -31.06,-31.06 -10.87,-1.56 -15.53,-10.97 -34.16,-13.25 -18.63,-2.28 -59.0101,-2.28 -43.48,5.48 15.53,7.76 23.29,13.97 43.48,24.84 20.18,10.87 35.71,35.71 26.4,48.14 z m -153.73007,-121.12 c -5.15,6.02 -7.76,21.74 13.98,21.74 21.74,-0.01 35.71,-1.56 40.36997,-15.53 4.66,-13.98 -4.65997,-22.24 -21.73997,-11.9 -17.08,10.35 -23.3,-5.18 -32.61,5.69 z m 67.71997,15.53 c -6.69,12.14 -4.05,21.74 16.1301,12.42 20.19,-9.31 35.72,-23.29 46.59,-9.31 10.87,13.98 20.19,17.47 31.06,12.62 6.77,-3.02 18.95,-10.18 24.56,-17.79 -23.29,-7.37 -47.28,-13.14 -71.85,-17.22 -17.83,4.31 -39.89,7.31 -46.4801,19.28 z"
     id="path113"
     style="fill:#184695;fill-opacity:0.996078" /><polygon
     class="fil2"
     points="670.68,800.48 541.91,800.48 541.91,671.7 670.68,671.7 "
     id="polygon113"
     transform="matrix(1.3993385,0,0,1.3993385,-473.24888,-655.58091)"
     style="fill:#ffffff" /><polygon
     class="fil2"
     points="817.34,759.34 817.34,948.93 627.76,948.93 627.76,759.34 "
     id="polygon114"
     transform="matrix(1.2674027,0,0,1.2622515,-424.83208,-585.63005)"
     style="fill:#ffffff" /><path
     id="polygon115"
     style="fill:#ffffff"
     class="fil2"
     transform="matrix(1.3693575,0,0,1.3693575,-531.04093,-593.87455)"
     d="M 744.01,696.74 V 560.81 H 879.94 V 679.31063 L 851.32553,696.74 Z" /><path
     class="fil4"
     d="m 908.99803,590.99815 c 26.32,0 51.06,5 74.21,14.98 23.14997,9.99 43.26007,23.52 60.31007,40.58 17.06,17.06 30.59,37.17 40.57,60.32 10,23.15 14.99,47.88 14.99,74.2 0,26.32 -4.39,50.69 -13.16,73.11 -8.78,22.42 -21.69,42.04 -38.75,58.86 -17.06,16.81 -38.6201,29.98 -64.70007,39.48 -26.08,9.5 -56.17,14.26 -90.3,14.26 h -119.17 v 159.38005 h -102.35 V 590.99815 h 238.34 z m 0,283.67 c 15.11,0 28.27,-2.56 39.48,-7.68 11.21,-5.11 20.35,-12.06 27.42,-20.83 7.07,-8.78 12.31,-18.76 15.72,-29.98 3.41,-11.21 5.12,-22.91 5.12,-35.09 0,-12.19 -2.2,-24.25 -6.58,-36.19 -4.39,-11.94 -10.72,-22.54 -19.01,-31.81 -8.28,-9.26 -18.52,-16.81 -30.7,-22.66 -12.19,-5.85 -26.32,-8.77 -42.41,-8.77 h -125.02 v 193.01 h 135.99 z"
     id="path116" /><path
     class="fil5"
     d="m 882.98803,966.79815 c 41.48,0.19 76.81,-4.97 104.99,-16.35 7.51,13.18 16.37997,25.22 26.60997,36.08 15.5901,16.57005 34.0001,29.85005 55.2001,39.85005 21.2,9.99 43.99,14.98 68.36,14.98 15.11,0 29.73,-2.19 43.87,-6.58 14.14,-4.39 27.54,-10.48 40.22,-18.28 12.67,-7.8 24.24,-16.94005 34.73,-27.41005 10.48,-10.48 19.61,-21.57 27.41,-33.27 l 95.78,38.75 c -11.7,21.44005 -26.08,40.82005 -43.14,58.13005 -17.06,17.3 -35.94,32.17 -56.66,44.59 -20.72,12.43 -43.14,22.06 -67.26,28.88 -24.13,6.82 -49.11,10.23 -74.94,10.23 -38.02,0 -73.84,-7.31 -107.47,-21.93 -33.63007,-14.63 -63.00007,-34.48 -88.10007,-59.59 -25.1,-25.1 -44.96,-54.47 -59.59,-88.10005 z m 30.21,-92.19 -51.74,0.07 c -0.29,-5.26 -0.41,-10 -0.41,-15.35 0,-38.02 7.31,-73.84 21.93,-107.48 14.62,-33.63 34.48,-63 59.59,-88.1 25.1,-25.1 54.46,-44.96 88.10007,-59.59 33.63,-14.62 69.46,-21.93 107.47,-21.93 25.83,0 50.81,3.41 74.94,10.23 24.13,6.83 46.55,16.45 67.26,28.88 20.72,12.43 39.6,27.3 56.66,44.6 17.06,17.3 31.44,36.43 43.14,57.39 l -95.78,38.75 c -7.8,-11.7 -16.94,-22.67 -27.41,-32.9 -10.48,-10.24 -22.06,-19.25 -34.73,-27.05 -12.68,-7.8 -26.08,-13.89 -40.22,-18.28 -14.13,-4.39 -28.76,-6.58 -43.87,-6.58 -24.37,0 -47.15,5 -68.36,14.99 -21.2,9.99 -39.6,23.27 -55.2001,39.85 -15.59997,16.57 -28.02997,35.94 -37.28997,58.13 -9.11,21.82 -13.74,44.49 -13.89,67.97 -3.87,3.24 -22.44,16.35 -50.22,16.4 z"
     id="path117" /><path
     class="fil6"
     d="m 1004.978,575.94815 c 3.7,-1.77 7.43,-3.47 11.2,-5.11 38.7401,-16.84 79.7201,-24.95 121.9601,-24.95 28.72,0 57.18,3.79 84.83,11.61 26.7,7.56 52.26,18.4 76.07,32.69 23.35,14.01 44.72,30.85 63.84,50.25 19.21,19.48 35.66,41.31 48.99,65.2 l 20.06,35.95 -161.38,65.29 -16.42,-24.63 c -6.54,-9.81 -14.15,-18.83 -22.57,-27.06 -8.61,-8.41 -18.13,-15.78 -28.38,-22.09 -10.02,-6.17 -20.69,-11.04 -31.94,-14.52 -10.76,-3.33 -21.83,-4.95 -33.1,-4.95 -4.26,0 -8.48,0.19 -12.66,0.59 6.7,21.6 9.94,44.01 9.94,66.89 0,29.61 -4.85,58.73 -15.66,86.35 -10.6,27.09 -26.37,51.07 -47.08,71.49 -9.29,9.15 -19.41,17.19 -30.17,24.22 12.34,12.73 26.69,22.78 42.76,30.35 16.74,7.89005 34.39,11.52005 52.87,11.52005 11.27,0 22.34,-1.61 33.09,-4.94 11.24,-3.49005 21.91,-8.35005 31.94,-14.52005 10.21,-6.29 19.6,-13.69 28.08,-22.17 8.49,-8.49 16.21,-17.73 22.88,-27.73 l 16.42,-24.63 161.01,65.14 -19.52,35.80005 c -13.26,24.3099 -29.72,46.5099 -49.16,66.24 -19.12,19.4 -40.49,36.24 -63.84,50.24 -23.81,14.2899 -49.36,25.13 -76.07,32.69 -27.65,7.8199 -56.1,11.6099 -84.83,11.6099 -42.24,0 -83.23,-8.1 -121.9601,-24.9399 -37.18997,-16.17 -70.62997,-38.54 -99.29997,-67.21 -22.94,-22.94 -41.85,-48.94 -56.77,-77.4601 h -50.76 v 159.38 h -175.04 V 554.68815 h 274.69 c 30.65,0 60.46,5.81 88.61,17.96 2.47997,1.07 4.93997,2.18 7.37997,3.33 z m -179.58997,262.38 c 2.26,-34.82 10.23,-68.67 24.27,-100.97 2.86,-6.57 5.91,-13.03 9.16,-19.36 h -49.48 v 120.33 z"
     id="path118" /><path
     class="fil0"
     d="m 908.99803,590.99815 c 26.32,0 51.06,5 74.21,14.98 23.14997,9.99 43.26007,23.52 60.31007,40.58 17.06,17.06 30.59,37.17 40.57,60.32 10,23.15 14.99,47.88 14.99,74.2 0,26.32 -4.39,50.69 -13.16,73.11 -8.78,22.42 -21.69,42.04 -38.75,58.86 -17.06,16.81 -38.6201,29.98 -64.70007,39.48 -26.08,9.5 -56.17,14.26 -90.3,14.26 h -119.17 v 159.38005 h -102.35 V 590.99815 h 238.34 z m 0,283.67 c 15.11,0 28.27,-2.56 39.48,-7.68 11.21,-5.11 20.35,-12.06 27.42,-20.83 7.07,-8.78 12.31,-18.76 15.72,-29.98 3.41,-11.21 5.12,-22.91 5.12,-35.09 0,-12.19 -2.2,-24.25 -6.58,-36.19 -4.39,-11.94 -10.72,-22.54 -19.01,-31.81 -8.28,-9.26 -18.52,-16.81 -30.7,-22.66 -12.19,-5.85 -26.32,-8.77 -42.41,-8.77 h -125.02 v 193.01 h 135.99 z"
     id="path119" /><path
     class="fil7"
     d="m 882.98803,966.79815 c 41.48,0.19 76.81,-4.97 104.99,-16.35 7.51,13.18 16.37997,25.22 26.60997,36.08 15.5901,16.57005 34.0001,29.85005 55.2001,39.85005 21.2,9.99 43.99,14.98 68.36,14.98 15.11,0 29.73,-2.19 43.87,-6.58 14.14,-4.39 27.54,-10.48 40.22,-18.28 12.67,-7.8 24.24,-16.94005 34.73,-27.41005 10.48,-10.48 19.61,-21.57 27.41,-33.27 l 95.78,38.75 c -11.7,21.44005 -26.08,40.82005 -43.14,58.13005 -17.06,17.3 -35.94,32.17 -56.66,44.59 -20.72,12.43 -43.14,22.06 -67.26,28.88 -24.13,6.82 -49.11,10.23 -74.94,10.23 -38.02,0 -73.84,-7.31 -107.47,-21.93 -33.63007,-14.63 -63.00007,-34.48 -88.10007,-59.59 -25.1,-25.1 -44.96,-54.47 -59.59,-88.10005 z m 30.21,-92.19 -51.74,0.07 c -0.29,-5.26 -0.41,-10 -0.41,-15.35 0,-38.02 7.31,-73.84 21.93,-107.48 14.62,-33.63 34.48,-63 59.59,-88.1 25.1,-25.1 54.46,-44.96 88.10007,-59.59 33.63,-14.62 69.46,-21.93 107.47,-21.93 25.83,0 50.81,3.41 74.94,10.23 24.13,6.83 46.55,16.45 67.26,28.88 20.72,12.43 39.6,27.3 56.66,44.6 17.06,17.3 31.44,36.43 43.14,57.39 l -95.78,38.75 c -7.8,-11.7 -16.94,-22.67 -27.41,-32.9 -10.48,-10.24 -22.06,-19.25 -34.73,-27.05 -12.68,-7.8 -26.08,-13.89 -40.22,-18.28 -14.13,-4.39 -28.76,-6.58 -43.87,-6.58 -24.37,0 -47.15,5 -68.36,14.99 -21.2,9.99 -39.6,23.27 -55.2001,39.85 -15.59997,16.57 -28.02997,35.94 -37.28997,58.13 -9.11,21.82 -13.74,44.49 -13.89,67.97 -3.87,3.24 -22.44,16.35 -50.22,16.4 z"
     id="path120" /><path
     style="fill:#184695;fill-opacity:0.996078;stroke-width:1.80001"
     d="m 397.2371,511.96679 v -73.8007 h -43.20041 -43.20041 v -63.9006 -63.9006 h 63.90061 63.9006 v 44.10042 44.10041 h 72.90069 72.90068 v 93.60089 93.60087 H 490.83798 397.2371 Z"
     id="path121" /><path
     style="display:inline;fill:#184695;fill-opacity:0.996078;stroke:none;stroke-width:1.80001"
     d="m 514.2382,267.16448 v -66.60062 h 66.60064 66.60062 v 66.60062 66.60063 H 580.83884 514.2382 Z"
     id="path122" /><path
     style="fill:#184695;fill-opacity:0.996078;stroke-width:1.80001"
     d="M 670.83968,858.47006 V 591.16754 l 120.15114,0.0312 c 66.08312,0.0167 127.44119,0.80667 136.35127,1.75441 21.695,2.30771 41.79735,7.7837 60.21627,16.40325 l 15.21584,7.12059 -13.41583,8.62955 c -18.73029,12.04802 -38.50384,28.34276 -52.85646,43.55727 l -12.20569,12.93869 -76.3278,-0.31896 -76.32779,-0.31896 v 97.3028 97.3028 l 75.1507,-0.0271 c 81.41215,-0.0292 88.5405,-0.69615 106.92075,-10.01017 17.36078,-8.79739 33.01673,-28.87128 39.20154,-50.2638 3.3743,-11.67131 5.08253,-33.33404 3.61082,-45.79009 l -1.36937,-11.58979 7.80383,-10.14164 c 12.331,-16.02507 34.8994,-36.04686 52.2223,-46.32955 8.7561,-5.19755 17.038,-9.45009 18.4041,-9.45009 3.1217,0 11.55,18.42119 17.8847,39.08902 4.5117,14.71989 4.8541,18.17266 4.96,50.01182 0.125,37.59133 -2.0118,49.79925 -13.5803,77.58813 -15.0661,36.19009 -47.1462,68.75372 -84.93215,86.21188 -37.24531,17.2084 -63.59812,20.70172 -156.16845,20.70172 h -70.10847 v 80.10078 80.1007 h -50.40048 -50.40047 z"
     id="path123" /></g><g
   id="g129"
   transform="translate(-21.694285,18.717456)"
   style="display:inline"><g
     id="_277650536"
     transform="translate(-249.46963,-361.63185)"
     style="clip-rule:evenodd;fill-rule:evenodd;image-rendering:optimizeQuality;shape-rendering:geometricPrecision;text-rendering:geometricPrecision">
   <path
   class="fil2"
   d="m 620.3,1914.2 -0.63,1.87 -0.62,1.25 -0.63,1.25 -0.62,0.62 -0.63,1.25 -0.62,0.62 -0.63,0.62 -0.62,1.25 -1.25,0.62 -0.63,0.62 -0.62,0.63 -1.25,0.62 -0.63,0.62 -1.87,0.63 -1.25,0.62 -2.5,0.62 -38.07,0.62 v -44.26 l 38.69,0.64 2.5,0.62 1.87,0.62 1.25,0.62 1.25,0.63 0.62,0.62 0.63,0.62 0.62,0.63 0.63,0.62 0.62,0.62 0.63,0.62 0.62,0.63 0.63,1.24 0.62,0.63 0.63,1.24 0.62,1.87 0.63,1.87 0.62,3.12 v 9.97 l -0.62,2.5 z m -78.63,79.15 h 25.58 v -41.76 h 24.96 v 1.24 l 0.63,0.62 0.62,1.25 0.63,0.62 0.62,0.63 0.63,1.24 0.62,0.63 0.63,1.24 0.62,0.62 0.63,1.25 0.62,0.62 0.63,0.63 0.62,1.24 0.63,0.62 0.62,1.25 0.63,0.63 0.62,0.62 0.63,1.24 0.62,0.63 0.63,0.62 0.62,1.25 0.63,0.62 0.62,1.24 0.63,0.63 0.62,0.62 0.63,1.25 0.62,0.62 0.63,1.25 0.62,0.62 0.63,0.62 0.62,1.25 0.63,0.62 0.62,0.62 0.63,1.25 0.62,0.62 0.63,0.63 0.62,1.24 0.63,0.62 0.62,0.63 0.63,1.24 0.62,0.63 0.63,0.62 0.62,1.24 0.63,0.63 0.62,0.62 0.63,1.25 0.62,0.62 0.63,0.62 0.62,0.63 h 30.57 v -1.25 l -0.62,-0.62 -0.63,-1.25 -0.62,-0.62 -0.63,-1.25 -0.62,-0.62 -0.63,-0.62 -0.62,-1.25 -0.63,-0.62 -0.62,-0.63 -0.62,-1.24 -0.63,-0.62 -0.63,-1.25 -0.62,-0.62 -0.62,-0.63 -0.63,-1.24 -0.63,-0.63 -0.62,-0.62 -0.63,-1.24 -0.62,-0.63 -0.62,-0.62 -0.63,-1.25 -0.63,-0.62 -0.62,-0.62 -0.62,-1.25 -0.63,-0.62 -0.63,-0.62 -0.62,-1.25 -0.62,-0.62 -0.63,-0.63 -0.63,-1.24 -0.62,-0.62 -0.62,-0.63 -0.63,-1.25 -0.62,-0.62 -0.63,-0.62 -0.62,-1.25 -0.63,-0.62 -0.62,-0.62 -0.63,-1.25 -0.62,-0.62 -0.63,-0.62 -0.62,-1.25 -0.63,-0.62 -0.62,-0.63 -0.63,-1.24 -0.62,-0.63 -0.63,-0.62 -0.62,-1.24 -0.63,-0.63 -0.62,-0.62 -0.63,-1.87 h 1.25 l 1.87,-0.62 0.62,-0.63 1.25,-0.62 1.25,-0.62 0.63,-0.62 1.25,-0.63 0.62,-0.62 1.25,-0.62 0.63,-0.63 0.62,-0.62 0.63,-0.62 0.62,-0.62 0.62,-0.63 0.63,-0.62 0.63,-0.62 0.62,-0.63 0.62,-0.62 0.63,-0.62 0.63,-0.63 0.62,-0.62 0.62,-1.24 0.63,-0.63 0.63,-1.25 0.62,-0.62 0.62,-1.24 0.63,-1.25 0.62,-0.62 0.63,-1.25 0.63,-1.87 0.62,-1.24 0.62,-1.87 0.63,-1.87 0.63,-2.49 0.62,-3.74 v -16.2 l -0.62,-3.11 -0.63,-2.5 -0.63,-1.87 -0.62,-1.87 -0.62,-1.87 -0.63,-1.25 -0.63,-1.24 -0.62,-1.25 -0.63,-1.25 -0.62,-1.24 -0.62,-0.63 -0.63,-1.24 -0.63,-0.62 -0.62,-0.63 -0.62,-1.24 -0.63,-0.63 -0.63,-0.62 -0.62,-0.62 -0.62,-0.63 -0.63,-0.62 -0.63,-0.62 -0.62,-0.62 -0.62,-0.63 -0.63,-0.62 -0.62,-0.62 -1.25,-0.63 -0.63,-0.62 -0.62,-0.62 -1.25,-0.62 -1.25,-0.63 -0.63,-0.62 -1.25,-0.62 -1.25,-0.63 -1.25,-0.62 -1.87,-0.62 -1.25,-0.63 -1.87,-0.62 -2.5,-0.62 -3.12,-0.62 -4.37,-0.63 h -65.52 v 132.13 z m -152.88,-78.53 -0.63,1.87 -0.62,1.87 -0.63,1.24 -0.62,1.25 -0.63,1.24 -0.62,0.63 -0.63,1.24 -0.62,0.63 -0.63,0.62 -0.62,0.62 -1.25,0.63 -0.63,0.62 -1.24,0.62 -1.25,0.62 -1.24,0.63 -1.87,0.62 -3.12,0.62 -36.82,0.63 v -46.76 l 34.94,0.65 3.12,0.62 1.87,0.62 1.25,0.62 1.25,0.63 0.62,0.62 1.25,0.62 0.62,0.63 1.25,0.62 0.62,0.62 0.63,0.62 0.62,0.63 0.63,0.62 0.62,1.25 0.63,0.62 0.62,1.25 0.63,0.62 0.62,1.24 0.63,1.25 0.62,1.87 0.63,2.49 0.62,3.74 v 3.74 l -0.62,4.36 z m -79.25,78.53 h 25.58 v -39.26 h 38.06 l 4.37,-0.63 3.12,-0.62 2.5,-0.62 1.87,-0.62 1.87,-0.63 1.87,-0.62 1.25,-0.62 1.25,-0.63 1.25,-0.62 1.25,-0.62 1.25,-0.63 1.25,-0.62 0.62,-0.62 1.25,-0.62 0.63,-0.63 0.62,-0.62 1.25,-0.62 0.63,-0.63 0.62,-0.62 0.63,-0.62 0.62,-0.62 0.63,-0.63 0.62,-0.62 0.63,-0.62 0.62,-0.63 0.63,-0.62 0.62,-1.25 0.63,-0.62 0.62,-0.62 0.63,-1.25 0.62,-0.62 0.63,-1.25 0.62,-1.24 0.63,-1.25 0.62,-1.25 0.63,-1.24 0.62,-1.87 0.63,-1.87 0.62,-2.49 0.63,-2.49 0.62,-4.36 v -11.84 l -0.62,-3.74 -0.63,-2.49 -0.62,-2.49 -0.63,-1.87 -0.62,-1.25 -0.63,-1.24 -0.62,-1.87 -0.63,-1.25 -0.62,-0.62 -0.63,-1.25 -0.62,-1.24 -0.63,-0.63 -0.62,-1.24 -0.63,-0.63 -0.62,-1.24 -0.63,-0.62 -0.62,-0.63 -0.63,-0.62 -0.62,-0.62 -0.63,-0.63 -0.62,-1.24 -0.63,-0.63 -1.25,-0.62 -0.62,-0.62 -0.63,-0.62 -0.62,-0.63 -0.63,-0.62 -0.62,-0.62 -1.25,-0.63 -0.63,-0.62 -1.25,-0.62 -0.62,-0.62 -1.25,-0.63 -1.25,-0.62 -1.25,-0.62 -1.25,-0.63 -1.25,-0.62 -1.25,-0.62 -1.87,-0.63 -1.87,-0.62 -1.87,-0.62 -3.12,-0.62 -4.37,-0.63 h -63.65 v 132.13 z m 115.44,0 h 97.34 v -23.06 h -71.76 v -30.54 h 0.62 63.02 v -23.06 h -63.65 v -32.41 h 71.76 v -23.06 h -97.34 v 132.13 z m 239.61,-51.11 0.62,8.1 0.63,3.11 0.62,3.12 0.63,2.49 0.62,1.87 0.63,1.25 0.62,1.87 0.63,1.25 0.62,1.25 0.63,1.24 0.62,1.25 0.63,1.25 0.62,1.24 0.63,0.62 0.62,1.25 0.63,0.62 0.62,1.25 0.63,0.62 0.62,0.63 0.63,0.62 0.62,1.24 0.63,0.63 0.62,0.62 0.63,0.62 0.62,0.63 0.63,0.62 0.62,0.62 0.63,0.63 1.25,0.62 0.62,0.62 0.63,0.62 0.62,0.63 1.25,0.62 0.63,0.62 1.25,0.63 0.62,0.62 1.25,0.62 1.25,0.62 1.25,0.63 1.25,0.62 1.25,0.62 1.25,0.63 1.87,0.62 1.87,0.62 1.87,0.63 2.5,0.62 2.5,0.62 3.12,0.62 6.24,0.63 h 10.61 l 6.24,-0.63 3.12,-0.62 3.12,-0.62 1.87,-0.62 1.87,-0.63 1.87,-0.62 1.87,-0.62 1.25,-0.63 1.25,-0.62 1.25,-0.62 1.25,-0.63 1.25,-0.62 1.25,-0.62 0.63,-0.62 1.25,-0.63 0.62,-0.62 1.25,-0.62 0.63,-0.63 0.62,-0.62 1.25,-0.62 0.63,-0.62 0.62,-0.63 0.63,-0.62 0.62,-0.62 0.63,-0.63 0.62,-0.62 0.63,-0.62 0.62,-0.63 0.63,-0.62 0.62,-1.24 0.63,-0.63 0.62,-0.62 0.63,-0.62 0.62,-1.25 0.62,-0.62 0.63,-1.25 0.63,-1.24 0.62,-0.63 0.62,-1.24 0.63,-1.25 0.63,-1.87 0.62,-1.25 0.62,-1.24 0.63,-1.87 0.62,-2.49 0.63,-1.87 0.62,-3.12 0.63,-3.74 v -88.5 h -25.58 l -0.63,84.76 -0.62,3.74 -0.63,2.49 -0.62,1.87 -0.63,1.24 -0.62,1.25 -0.63,1.25 -0.62,1.24 -0.63,0.62 -0.62,1.25 -0.63,0.62 -0.62,0.63 -0.63,0.62 -0.62,1.24 -0.63,0.63 -1.25,0.62 -0.62,0.63 -0.63,0.62 -0.62,0.62 -1.25,0.62 -0.63,0.63 -1.25,0.62 -1.25,0.62 -1.87,0.63 -1.87,0.62 -1.87,0.62 -3.12,0.62 h -10.61 l -3.12,-0.62 -2.5,-0.62 -1.25,-0.62 -1.87,-0.63 -1.25,-0.62 -1.25,-0.62 -0.62,-0.63 -1.25,-0.62 -0.62,-0.62 -0.62,-0.62 -1.25,-0.63 -0.63,-0.62 -0.62,-0.63 -0.63,-0.62 -0.62,-1.24 -0.63,-0.63 -0.62,-0.62 -0.63,-1.25 -0.62,-0.62 -0.63,-1.24 -0.62,-1.25 -0.63,-1.25 -0.62,-1.24 -0.63,-1.87 -0.62,-2.49 -0.63,-3.12 -0.62,-85.38 h -26.21 v 81.02 z"
   id="path100" />
   <g
   id="g107">
    <path
   class="fil3"
   d="m 1458.95,1925.42 0.63,-5.61 0.62,-3.11 0.63,-1.87 0.62,-1.87 0.63,-1.87 0.62,-1.24 0.63,-1.25 0.62,-1.25 0.63,-1.24 0.62,-1.25 0.63,-1.24 0.62,-0.63 0.63,-1.24 0.62,-0.63 0.63,-0.62 0.62,-1.25 0.63,-0.62 0.62,-0.62 0.63,-0.63 0.62,-0.62 0.63,-0.62 0.62,-0.62 0.63,-0.63 0.62,-0.62 0.63,-0.62 0.62,-0.63 0.63,-0.62 1.25,-0.62 0.62,-0.63 1.25,-0.62 0.63,-0.62 1.25,-0.62 0.62,-0.63 1.25,-0.62 1.25,-0.62 1.25,-0.63 1.87,-0.62 1.25,-0.62 1.87,-0.62 2.5,-0.63 3.12,-0.62 h 11.23 l 3.12,0.62 2.5,0.63 1.87,0.62 1.87,0.62 1.25,0.62 1.25,0.63 1.25,0.62 1.25,0.62 0.62,0.63 1.25,0.62 1.25,0.62 0.63,0.62 0.62,0.63 1.25,0.62 0.63,0.62 0.62,0.63 0.63,0.62 0.62,0.62 0.63,0.63 0.62,0.62 0.63,0.62 0.62,0.62 0.63,0.63 0.62,0.62 0.63,0.62 0.62,0.63 0.63,1.24 0.62,0.63 0.63,1.24 0.62,0.63 0.63,1.24 0.62,1.25 0.63,1.24 0.62,1.25 0.63,1.25 0.62,1.24 0.63,1.87 0.62,1.87 0.63,1.87 0.62,3.11 0.63,4.36 v 6.23 l -0.63,4.99 -0.62,2.49 -0.63,2.49 -0.62,1.87 -0.63,1.25 -0.62,1.87 -0.63,1.24 -0.62,1.25 -0.63,1.24 -0.62,0.63 -0.63,1.24 -0.62,1.25 -0.63,0.62 -0.62,0.62 -0.63,1.25 -0.62,0.62 -0.63,0.63 -0.62,1.24 -0.63,0.63 -0.62,0.62 -0.63,0.62 -0.62,0.62 -0.63,0.63 -0.62,0.62 -1.25,0.62 -0.63,0.63 -0.62,0.62 -0.63,0.62 -1.25,0.62 -0.62,0.63 -1.25,0.62 -0.63,0.63 -1.25,0.62 -1.25,0.62 -1.25,0.62 -1.25,0.63 -1.87,0.62 -1.87,0.62 -1.87,0.63 -2.5,0.62 -5.62,0.62 h -3.74 l -5.62,-0.62 -2.5,-0.62 -1.87,-0.63 -1.87,-0.62 -1.87,-0.62 -1.25,-0.63 -1.25,-0.62 -1.25,-0.62 -0.63,-0.62 -1.25,-0.63 -1.25,-0.62 -0.62,-0.63 -1.25,-0.62 -0.63,-0.62 -0.62,-0.62 -0.63,-0.63 -0.62,-0.62 -1.25,-0.62 -0.63,-0.63 -0.62,-0.62 -0.63,-0.62 -0.62,-0.62 -0.63,-1.25 -0.62,-0.62 -0.63,-0.63 -0.62,-0.62 -0.63,-1.25 -0.62,-0.62 -0.63,-1.24 -0.62,-0.63 -0.63,-1.24 -0.62,-1.25 -0.63,-0.62 -0.62,-1.25 -0.63,-1.87 -0.62,-1.24 -0.63,-1.87 -0.62,-1.87 -0.63,-1.87 -0.62,-3.11 -0.63,-4.99 v -4.36 z m 31.2,-66.06 -3.12,0.62 -2.5,0.63 -2.5,0.62 -1.87,0.63 -1.87,0.62 -1.87,0.62 -1.25,0.62 -1.25,0.63 -1.87,0.62 -1.25,0.62 -1.25,0.63 -0.63,0.62 -1.25,0.62 -1.25,0.63 -1.25,0.62 -0.62,0.62 -1.25,0.62 -0.63,0.63 -1.25,0.62 -0.62,0.62 -0.63,0.63 -1.25,0.62 -0.62,0.62 -0.63,0.62 -0.62,0.63 -0.63,0.62 -1.25,0.62 -0.62,0.63 -0.63,0.62 -0.62,0.62 -0.63,0.63 -0.62,0.62 -0.63,0.62 -0.62,0.62 -0.63,0.63 -0.62,1.24 -0.63,0.63 -0.62,0.62 -0.63,0.62 -0.62,0.63 -0.63,1.24 -0.62,0.62 -0.63,0.63 -0.62,1.24 -0.63,0.63 -0.62,1.24 -0.63,1.25 -0.62,0.62 -0.63,1.25 -0.62,1.24 -0.63,1.25 -0.62,1.24 -0.63,1.25 -0.62,1.25 -0.62,1.24 -0.63,1.87 -0.63,1.25 -0.62,1.87 -0.62,2.49 -0.63,1.87 -0.63,3.11 -0.62,3.12 -0.62,6.85 v 8.1 l 0.62,6.23 0.62,3.74 0.63,2.49 0.63,2.49 0.62,1.87 0.62,1.87 0.63,1.87 0.63,1.24 0.62,1.25 0.62,1.87 0.63,1.25 0.62,1.24 0.63,0.62 0.62,1.25 0.63,1.25 0.62,1.24 0.63,0.62 0.62,1.25 0.63,0.63 0.62,1.24 0.63,0.62 0.62,0.63 0.63,1.24 0.62,0.63 0.63,0.62 0.62,0.62 0.63,1.25 0.62,0.62 0.63,0.62 0.62,0.63 0.63,0.62 0.62,0.62 0.63,0.63 0.62,0.62 0.63,0.62 0.62,0.62 0.63,0.63 0.62,0.62 1.25,0.62 0.63,0.63 0.62,0.62 0.63,0.62 1.25,0.63 0.62,0.62 1.25,0.62 0.63,0.62 1.25,0.63 0.62,0.62 1.25,0.62 0.63,0.63 1.25,0.62 1.25,0.62 1.25,0.62 1.25,0.63 1.25,0.62 1.25,0.62 1.87,0.63 1.25,0.62 1.87,0.62 1.87,0.63 2.5,0.62 2.5,0.62 3.12,0.62 4.37,0.63 h 14.98 l 4.37,-0.63 3.12,-0.62 3.12,-0.62 1.87,-0.62 1.87,-0.63 1.87,-0.62 1.87,-0.62 1.25,-0.63 1.25,-0.62 1.25,-0.62 1.25,-0.63 1.25,-0.62 1.25,-0.62 1.25,-0.62 1.25,-0.63 0.63,-0.62 1.25,-0.62 0.62,-0.63 1.25,-0.62 0.63,-0.62 1.25,-0.62 0.62,-0.63 0.63,-0.62 1.25,-0.62 0.62,-0.63 0.63,-0.62 0.62,-0.62 0.63,-0.63 0.62,-0.62 0.63,-0.62 0.62,-0.62 0.63,-0.63 0.62,-0.62 0.63,-0.62 0.62,-0.63 0.63,-0.62 0.62,-0.62 0.63,-0.63 0.62,-0.62 0.63,-0.62 0.62,-1.25 0.63,-0.62 0.62,-0.62 0.63,-1.25 0.62,-0.62 0.62,-1.25 0.63,-0.62 0.63,-1.25 0.62,-0.62 0.62,-1.25 0.63,-1.24 0.63,-1.25 0.62,-1.24 0.62,-1.25 0.63,-1.25 0.63,-1.24 0.62,-1.25 0.62,-1.87 0.63,-1.87 0.62,-1.87 0.63,-1.87 0.63,-3.12 0.62,-3.11 0.62,-4.36 v -14.33 l -0.62,-4.99 -0.62,-3.11 -0.63,-2.49 -0.63,-2.5 -0.62,-1.87 -0.63,-1.87 -0.62,-1.25 -0.62,-1.87 -0.63,-1.25 -0.63,-1.24 -0.62,-1.25 -0.62,-1.24 -0.63,-1.25 -0.63,-1.25 -0.62,-0.62 -0.62,-1.25 -0.63,-1.24 -0.63,-0.62 -0.62,-1.25 -0.62,-0.62 -0.63,-0.63 -0.62,-1.24 -0.63,-0.62 -0.62,-0.63 -0.63,-1.24 -0.62,-0.63 -0.63,-0.62 -0.62,-0.62 -0.63,-0.63 -0.62,-0.62 -0.63,-0.62 -0.62,-0.62 -0.63,-0.63 -0.62,-0.62 -0.63,-0.62 -0.62,-0.63 -0.63,-0.62 -0.62,-0.62 -1.25,-0.63 -0.63,-0.62 -0.62,-0.62 -0.63,-0.62 -1.25,-0.63 -0.62,-0.62 -0.63,-0.62 -1.25,-0.63 -0.62,-0.62 -1.25,-0.62 -1.25,-0.62 -0.63,-0.63 -1.25,-0.62 -1.25,-0.62 -1.25,-0.63 -1.25,-0.62 -1.25,-0.62 -1.25,-0.63 -1.87,-0.62 -1.87,-0.62 -1.25,-0.62 -2.5,-0.63 -1.87,-0.62 -2.5,-0.63 -3.74,-0.62 -4.99,-0.62 h -11.85 l -5.62,0.62 z"
   id="path101" />
    <polygon
   class="fil3"
   points="814.37,1977.15 814.99,1977.77 815.61,1978.39 816.24,1979.02 816.86,1979.64 817.48,1980.26 818.11,1980.89 819.36,1981.51 819.98,1982.13 820.61,1982.76 821.85,1983.38 822.48,1984 823.72,1984.62 824.35,1985.25 825.6,1985.87 826.22,1986.49 827.47,1987.12 828.72,1987.74 829.96,1988.36 831.21,1988.98 832.46,1989.61 833.71,1990.23 834.96,1990.85 836.2,1991.48 838.08,1992.1 839.95,1992.72 841.82,1993.35 843.69,1993.97 846.19,1994.59 849.93,1995.22 854.3,1995.84 868.65,1995.84 873.65,1995.22 876.76,1994.59 879.26,1993.97 881.13,1993.35 883.63,1992.72 884.88,1992.1 886.75,1991.48 888.62,1990.85 889.87,1990.23 891.12,1989.61 892.37,1988.98 893.61,1988.36 894.86,1987.74 896.11,1987.12 896.73,1986.49 897.98,1985.87 899.23,1985.25 899.85,1984.62 901.1,1984 901.72,1983.38 902.35,1982.76 903.59,1982.13 904.22,1981.51 904.85,1980.89 905.47,1980.26 906.72,1979.64 907.34,1979.02 907.96,1978.39 908.59,1977.77 909.21,1977.15 909.84,1976.52 910.46,1975.9 911.08,1975.28 911.71,1974.65 912.33,1974.03 912.96,1973.41 913.58,1972.78 914.2,1972.16 914.83,1970.91 915.45,1970.29 916.07,1969.67 916.7,1969.04 917.32,1967.8 917.95,1967.17 918.57,1965.93 919.2,1965.3 919.82,1964.06 920.44,1963.43 921.07,1962.19 921.07,1960.32 920.44,1959.69 918.57,1959.07 917.32,1958.45 915.45,1957.83 914.2,1957.2 912.33,1956.58 911.08,1955.96 909.84,1955.33 907.96,1954.71 906.72,1954.09 904.85,1953.46 903.59,1952.84 901.72,1952.22 900.48,1951.59 898.61,1950.97 896.73,1950.97 896.11,1952.22 895.48,1952.84 894.86,1953.46 894.24,1954.71 893.61,1955.33 892.99,1955.96 892.37,1956.58 891.74,1957.2 891.12,1957.83 890.49,1958.45 889.87,1959.07 889.24,1959.69 888.62,1960.32 888,1960.94 887.37,1961.56 886.75,1962.19 886.13,1962.81 884.88,1963.43 884.25,1964.06 883,1964.68 882.38,1965.3 881.13,1965.93 879.89,1966.55 878.64,1967.17 877.39,1967.8 876.14,1968.42 874.89,1969.04 873.02,1969.67 871.15,1970.29 868.65,1970.91 863.66,1971.54 859.29,1971.54 854.3,1970.91 851.8,1970.29 849.31,1969.67 847.44,1969.04 846.19,1968.42 844.94,1967.8 843.69,1967.17 842.44,1966.55 841.2,1965.93 839.95,1965.3 839.32,1964.68 838.08,1964.06 837.45,1963.43 836.83,1962.81 835.58,1962.19 834.96,1961.56 834.33,1960.94 833.71,1960.32 833.09,1959.69 832.46,1959.07 831.84,1958.45 831.21,1957.83 830.59,1957.2 829.96,1956.58 829.34,1955.33 828.72,1954.71 828.09,1954.09 827.47,1952.84 826.85,1952.22 826.22,1950.97 825.6,1950.35 824.97,1949.1 824.35,1947.85 823.72,1946.61 823.1,1945.36 822.48,1944.11 821.85,1942.24 821.23,1940.37 820.61,1938.5 819.98,1935.39 819.36,1931.03 819.36,1924.17 819.98,1919.81 820.61,1916.69 821.23,1914.82 821.85,1912.95 822.48,1911.08 823.1,1909.84 823.72,1908.59 824.35,1907.34 824.97,1906.1 825.6,1904.85 826.22,1903.61 826.85,1902.98 827.47,1901.74 828.09,1901.11 828.72,1900.49 829.34,1899.24 829.96,1898.62 830.59,1898 831.21,1897.37 831.84,1896.75 832.46,1896.13 833.09,1895.5 833.71,1894.88 834.33,1894.26 834.96,1893.63 835.58,1893.01 836.2,1892.39 837.45,1891.76 838.08,1891.14 839.32,1890.52 839.95,1889.89 841.2,1889.27 841.82,1888.65 843.07,1888.02 844.31,1887.4 845.56,1886.78 847.44,1886.15 849.31,1885.53 851.18,1884.91 853.68,1884.28 857.42,1883.66 864.91,1883.66 869.28,1884.28 871.77,1884.91 873.65,1885.53 874.89,1886.15 876.76,1886.78 878.01,1887.4 879.26,1888.02 880.51,1888.65 881.13,1889.27 882.38,1889.89 883.63,1890.52 884.25,1891.14 885.5,1891.76 886.13,1892.39 886.75,1893.01 887.37,1893.63 888.62,1894.26 889.24,1894.88 889.87,1895.5 890.49,1896.13 891.12,1896.75 891.74,1897.37 892.37,1898 892.99,1898.62 893.61,1899.87 894.24,1900.49 894.86,1901.11 895.48,1901.74 896.11,1902.98 896.73,1903.61 897.35,1904.23 897.98,1904.23 899.23,1903.61 901.1,1902.98 902.35,1902.36 904.22,1901.74 905.47,1901.11 907.34,1900.49 908.59,1899.87 910.46,1899.24 911.71,1898.62 913.58,1898 914.83,1897.37 916.7,1896.75 917.95,1896.13 919.82,1895.5 921.07,1894.88 921.07,1893.01 920.44,1891.76 919.82,1890.52 919.2,1889.89 918.57,1888.65 917.95,1888.02 917.32,1886.78 916.7,1886.15 916.07,1885.53 915.45,1884.91 914.83,1883.66 914.2,1883.04 913.58,1882.41 912.96,1881.79 912.33,1881.17 911.71,1880.54 911.08,1879.92 910.46,1879.3 909.84,1878.68 909.21,1878.05 908.59,1877.43 907.96,1876.81 907.34,1876.18 906.72,1875.56 906.09,1874.94 904.85,1874.31 904.22,1873.69 903.59,1873.07 902.97,1872.44 901.72,1871.82 901.1,1871.2 899.85,1870.57 899.23,1869.95 897.98,1869.33 897.35,1868.7 896.11,1868.08 894.86,1867.46 893.61,1866.83 892.99,1866.21 891.74,1865.59 889.87,1864.96 888.62,1864.34 887.37,1863.72 885.5,1863.09 883.63,1862.47 881.76,1861.85 879.89,1861.22 877.39,1860.6 874.27,1859.98 869.9,1859.35 853.05,1859.35 848.69,1859.98 845.56,1860.6 843.69,1861.22 841.2,1861.85 839.32,1862.47 837.45,1863.09 836.2,1863.72 834.33,1864.34 833.09,1864.96 831.84,1865.59 830.59,1866.21 829.34,1866.83 828.09,1867.46 827.47,1868.08 826.22,1868.7 824.97,1869.33 824.35,1869.95 823.1,1870.57 822.48,1871.2 821.23,1871.82 820.61,1872.44 819.98,1873.07 818.73,1873.69 818.11,1874.31 817.48,1874.94 816.86,1875.56 816.24,1876.18 815.61,1876.81 814.37,1877.43 813.74,1878.05 813.12,1878.68 812.49,1879.3 811.87,1879.92 811.24,1880.54 810.62,1881.79 810,1882.41 809.37,1883.04 808.75,1883.66 808.13,1884.28 807.5,1884.91 806.88,1886.15 806.25,1886.78 805.63,1887.4 805,1888.65 804.38,1889.27 803.76,1890.52 803.13,1891.14 802.51,1892.39 801.89,1893.63 801.26,1894.26 800.64,1895.5 800.01,1896.75 799.39,1898 798.76,1899.24 798.14,1901.11 797.52,1902.36 796.89,1904.23 796.27,1905.47 795.65,1907.34 795.02,1909.84 794.4,1912.33 793.77,1915.44 793.15,1919.81 793.15,1935.39 793.77,1939.75 794.4,1942.87 795.02,1945.36 795.65,1947.23 796.27,1949.1 796.89,1950.97 797.52,1952.84 798.14,1954.09 798.76,1955.33 799.39,1956.58 800.01,1958.45 800.64,1959.07 801.26,1960.32 801.89,1961.56 802.51,1962.81 803.13,1963.43 803.76,1964.68 804.38,1965.3 805,1966.55 805.63,1967.17 806.25,1968.42 806.88,1969.04 807.5,1969.67 808.13,1970.91 808.75,1971.54 809.37,1972.16 810,1972.78 810.62,1973.41 811.24,1974.03 811.87,1974.65 812.49,1975.28 813.12,1975.9 813.74,1976.52 "
   id="polygon101" />
    <polygon
   class="fil3"
   points="1734.76,1976.52 1735.39,1977.15 1736.01,1977.77 1736.63,1978.39 1737.26,1979.02 1737.88,1979.64 1739.13,1980.26 1739.75,1980.89 1740.38,1981.51 1741,1982.13 1742.25,1982.76 1742.87,1983.38 1743.5,1984 1744.74,1984.62 1745.37,1985.25 1746.62,1985.87 1747.87,1986.49 1748.49,1987.12 1749.74,1987.74 1750.98,1988.36 1752.23,1988.98 1753.48,1989.61 1754.73,1990.23 1755.98,1990.85 1757.85,1991.48 1759.1,1992.1 1760.97,1992.72 1762.84,1993.35 1765.34,1993.97 1767.83,1994.59 1770.95,1995.22 1775.32,1995.84 1790.3,1995.84 1794.67,1995.22 1797.78,1994.59 1800.28,1993.97 1802.78,1993.35 1804.65,1992.72 1806.52,1992.1 1807.77,1991.48 1809.64,1990.85 1810.89,1990.23 1812.14,1989.61 1813.39,1988.98 1814.63,1988.36 1815.88,1987.74 1817.13,1987.12 1818.38,1986.49 1819,1985.87 1820.25,1985.25 1820.87,1984.62 1822.12,1984 1822.74,1983.38 1823.99,1982.76 1824.62,1982.13 1825.24,1981.51 1826.49,1980.89 1827.11,1980.26 1827.74,1979.64 1828.36,1979.02 1828.98,1978.39 1829.61,1977.77 1830.23,1977.15 1830.85,1976.52 1831.48,1975.9 1832.11,1975.28 1832.73,1974.65 1833.35,1974.03 1833.98,1973.41 1834.6,1972.78 1835.22,1972.16 1835.85,1971.54 1836.47,1970.91 1837.09,1969.67 1837.72,1969.04 1838.34,1968.42 1838.97,1967.17 1839.59,1966.55 1840.22,1965.3 1840.84,1964.68 1841.46,1963.43 1842.09,1962.81 1842.71,1961.56 1842.71,1960.32 1841.46,1959.69 1840.22,1959.07 1838.34,1958.45 1837.09,1957.83 1835.22,1957.2 1833.98,1956.58 1832.11,1955.96 1830.85,1955.33 1828.98,1954.71 1827.74,1954.09 1825.87,1953.46 1824.62,1952.84 1823.37,1952.22 1821.5,1951.59 1820.25,1950.97 1818.38,1950.97 1817.75,1951.59 1817.13,1952.22 1816.5,1953.46 1815.88,1954.09 1815.26,1954.71 1814.63,1955.33 1814.01,1956.58 1813.39,1957.2 1812.76,1957.83 1812.14,1958.45 1811.51,1959.07 1810.89,1959.69 1810.26,1960.32 1809.64,1960.94 1808.39,1961.56 1807.77,1962.19 1807.15,1962.81 1806.52,1963.43 1805.27,1964.06 1804.65,1964.68 1803.4,1965.3 1802.15,1965.93 1801.53,1966.55 1800.28,1967.17 1799.03,1967.8 1797.78,1968.42 1795.91,1969.04 1794.04,1969.67 1792.17,1970.29 1789.67,1970.91 1784.68,1971.54 1780.94,1971.54 1775.32,1970.91 1772.82,1970.29 1770.95,1969.67 1769.08,1969.04 1767.21,1968.42 1765.96,1967.8 1764.71,1967.17 1763.46,1966.55 1762.22,1965.93 1761.59,1965.3 1760.35,1964.68 1759.72,1964.06 1758.47,1963.43 1757.85,1962.81 1757.22,1962.19 1756.6,1961.56 1755.35,1960.94 1754.73,1960.32 1754.11,1959.69 1753.48,1959.07 1752.85,1958.45 1752.23,1957.83 1751.61,1956.58 1750.98,1955.96 1750.36,1955.33 1749.74,1954.71 1749.11,1953.46 1748.49,1952.84 1747.87,1951.59 1747.24,1950.97 1746.62,1949.72 1745.99,1948.48 1745.37,1947.23 1744.74,1945.98 1744.12,1944.74 1743.5,1943.49 1742.87,1941.62 1742.25,1939.75 1741.63,1937.26 1741,1934.14 1741,1921.06 1741.63,1917.94 1742.25,1915.44 1742.87,1913.57 1743.5,1911.7 1744.12,1910.46 1744.74,1908.59 1745.37,1907.34 1745.99,1906.1 1746.62,1905.47 1747.24,1904.23 1747.87,1902.98 1748.49,1902.36 1749.11,1901.11 1749.74,1900.49 1750.36,1899.87 1750.98,1898.62 1751.61,1898 1752.23,1897.37 1752.85,1896.75 1753.48,1896.13 1754.11,1895.5 1754.73,1894.88 1755.35,1894.26 1755.98,1893.63 1756.6,1893.01 1757.85,1892.39 1758.47,1891.76 1759.1,1891.14 1760.35,1890.52 1760.97,1889.89 1762.22,1889.27 1763.46,1888.65 1764.71,1888.02 1765.96,1887.4 1767.21,1886.78 1768.46,1886.15 1770.33,1885.53 1772.2,1884.91 1774.7,1884.28 1779.06,1883.66 1786.55,1883.66 1790.3,1884.28 1792.79,1884.91 1794.67,1885.53 1796.54,1886.15 1797.78,1886.78 1799.03,1887.4 1800.28,1888.02 1801.53,1888.65 1802.78,1889.27 1803.4,1889.89 1804.65,1890.52 1805.27,1891.14 1806.52,1891.76 1807.15,1892.39 1807.77,1893.01 1809.02,1893.63 1809.64,1894.26 1810.26,1894.88 1810.89,1895.5 1811.51,1896.13 1812.14,1896.75 1812.76,1897.37 1813.39,1898 1814.01,1898.62 1814.63,1899.24 1815.26,1899.87 1815.88,1901.11 1816.5,1901.74 1817.13,1902.36 1817.75,1903.61 1818.38,1904.23 1819,1904.23 1820.87,1903.61 1822.12,1902.98 1823.99,1902.36 1825.24,1901.74 1827.11,1901.11 1828.36,1900.49 1830.23,1899.87 1831.48,1899.24 1833.35,1898.62 1834.6,1898 1835.85,1897.37 1837.72,1896.75 1838.97,1896.13 1840.84,1895.5 1842.09,1894.88 1842.71,1894.26 1842.71,1893.63 1842.09,1892.39 1841.46,1891.14 1840.84,1890.52 1840.22,1889.27 1839.59,1888.65 1838.97,1887.4 1838.34,1886.78 1837.72,1886.15 1837.09,1884.91 1836.47,1884.28 1835.85,1883.66 1835.22,1883.04 1834.6,1882.41 1833.98,1881.79 1833.35,1880.54 1832.73,1879.92 1832.11,1879.3 1831.48,1878.68 1830.85,1878.05 1830.23,1877.43 1828.98,1876.81 1828.36,1876.18 1827.74,1875.56 1827.11,1874.94 1826.49,1874.31 1825.87,1873.69 1824.62,1873.07 1823.99,1872.44 1823.37,1871.82 1822.12,1871.2 1821.5,1870.57 1820.25,1869.95 1819.62,1869.33 1818.38,1868.7 1817.13,1868.08 1816.5,1867.46 1815.26,1866.83 1814.01,1866.21 1812.76,1865.59 1811.51,1864.96 1809.64,1864.34 1808.39,1863.72 1806.52,1863.09 1805.27,1862.47 1803.4,1861.85 1800.91,1861.22 1798.41,1860.6 1795.29,1859.98 1791.54,1859.35 1774.07,1859.35 1770.33,1859.98 1767.21,1860.6 1764.71,1861.22 1762.22,1861.85 1760.35,1862.47 1759.1,1863.09 1757.22,1863.72 1755.98,1864.34 1754.73,1864.96 1752.85,1865.59 1751.61,1866.21 1750.98,1866.83 1749.74,1867.46 1748.49,1868.08 1747.24,1868.7 1746.62,1869.33 1745.37,1869.95 1744.74,1870.57 1743.5,1871.2 1742.87,1871.82 1741.63,1872.44 1741,1873.07 1740.38,1873.69 1739.13,1874.31 1738.5,1874.94 1737.88,1875.56 1737.26,1876.18 1736.63,1876.81 1736.01,1877.43 1735.39,1878.05 1734.76,1878.68 1734.14,1879.3 1733.51,1879.92 1732.89,1880.54 1732.26,1881.17 1731.64,1881.79 1731.02,1882.41 1730.39,1883.04 1729.77,1883.66 1729.15,1884.91 1728.52,1885.53 1727.9,1886.15 1727.27,1887.4 1726.65,1888.02 1726.02,1888.65 1725.4,1889.89 1724.78,1890.52 1724.15,1891.76 1723.53,1893.01 1722.91,1893.63 1722.28,1894.88 1721.66,1896.13 1721.03,1897.37 1720.41,1898.62 1719.78,1899.87 1719.16,1901.11 1718.54,1902.98 1717.91,1904.85 1717.29,1906.1 1716.67,1908.59 1716.04,1910.46 1715.42,1913.57 1714.79,1916.69 1714.17,1922.93 1714.17,1932.27 1714.79,1938.5 1715.42,1941.62 1716.04,1944.11 1716.67,1946.61 1717.29,1948.48 1717.91,1950.35 1718.54,1952.22 1719.16,1953.46 1719.78,1955.33 1720.41,1956.58 1721.03,1957.83 1721.66,1959.07 1722.28,1960.32 1722.91,1960.94 1723.53,1962.19 1724.15,1963.43 1724.78,1964.06 1725.4,1965.3 1726.02,1965.93 1726.65,1967.17 1727.27,1967.8 1727.9,1969.04 1728.52,1969.67 1729.15,1970.29 1729.77,1970.91 1730.39,1972.16 1731.02,1972.78 1731.64,1973.41 1732.26,1974.03 1732.89,1974.65 1733.51,1975.28 1734.14,1975.9 "
   id="polygon102" />
    <polygon
   class="fil3"
   points="1681.1,1993.35 1681.1,1970.29 1611.21,1970.29 1611.21,1861.22 1585.63,1861.22 1585.63,1993.35 "
   id="polygon103" />
    <path
   class="fil3"
   d="m 1958.78,1934.77 -0.63,3.11 -0.62,1.87 -0.62,1.87 -0.63,1.87 -0.63,1.24 -0.62,1.25 -0.62,1.24 -0.63,1.25 -0.62,1.25 -0.63,1.24 -0.62,0.63 -0.63,1.24 -0.62,0.62 -0.63,1.25 -0.62,0.62 -0.63,0.63 -0.62,0.62 -0.63,0.62 -0.62,1.25 -0.63,0.62 -0.62,0.62 -0.63,0.63 -1.25,0.62 -0.62,0.62 -0.63,0.63 -0.62,0.62 -1.25,0.62 -0.63,0.62 -0.62,0.63 -1.25,0.62 -1.25,0.63 -0.63,0.62 -1.25,0.62 -1.25,0.62 -1.25,0.63 -1.87,0.62 -1.87,0.62 -1.87,0.63 -2.5,0.62 -5.62,0.62 h -3.74 l -5.61,-0.62 -2.5,-0.62 -2.5,-0.63 -1.25,-0.62 -1.87,-0.62 -1.25,-0.63 -1.24,-0.62 -1.25,-0.62 -1.24,-0.62 -0.63,-0.63 -1.25,-0.62 -0.62,-0.63 -1.25,-0.62 -0.63,-0.62 -0.62,-0.62 -0.63,-0.63 -1.25,-0.62 -0.63,-0.62 -0.62,-0.63 -0.62,-0.62 -0.63,-0.62 -0.63,-0.62 -0.62,-0.63 -0.62,-1.24 -0.63,-0.63 -0.62,-0.62 -0.63,-0.62 -0.62,-1.25 -0.63,-0.62 -0.62,-1.25 -0.63,-1.24 -0.62,-0.63 -0.63,-1.24 -0.62,-1.25 -0.63,-1.24 -0.62,-1.87 -0.63,-1.25 -0.62,-1.87 -0.63,-2.49 -0.62,-2.49 -0.63,-4.36 v -6.86 l 0.63,-4.98 0.62,-2.49 0.63,-2.49 0.62,-1.25 0.63,-1.87 0.62,-1.24 0.63,-1.87 0.62,-1.25 0.63,-0.62 0.62,-1.25 0.63,-1.24 0.62,-0.63 0.63,-1.24 0.62,-0.63 0.63,-1.24 0.62,-0.63 0.63,-0.62 0.62,-0.62 0.62,-0.63 0.63,-0.62 0.63,-0.62 0.62,-0.62 0.62,-0.63 0.63,-0.62 0.63,-0.62 0.62,-0.63 0.63,-0.62 1.25,-0.62 0.62,-0.63 0.63,-0.62 1.24,-0.62 1.25,-0.62 0.62,-0.63 1.25,-0.62 1.25,-0.62 1.25,-0.63 1.25,-0.62 1.87,-0.62 1.87,-0.62 2.5,-0.63 3.12,-0.62 h 11.23 l 3.12,0.62 2.5,0.63 1.87,0.62 1.25,0.62 1.87,0.62 1.25,0.63 1.25,0.62 1.25,0.62 0.62,0.63 1.25,0.62 0.63,0.62 1.25,0.62 0.62,0.63 1.25,0.62 0.63,0.62 0.62,0.63 0.63,0.62 0.62,0.62 0.63,0.63 0.62,0.62 0.63,0.62 0.62,0.62 0.63,0.63 0.62,0.62 0.63,0.62 0.62,1.25 0.63,0.62 0.62,0.63 0.63,1.24 0.62,0.63 0.63,1.24 0.62,1.25 0.63,1.24 0.62,1.25 0.62,1.25 0.63,1.24 0.63,1.87 0.62,1.87 0.62,2.49 0.63,2.49 0.63,6.23 v 3.12 z m -53.04,-75.41 -3.12,0.62 -3.12,0.63 -1.87,0.62 -1.87,0.63 -1.87,0.62 -1.87,0.62 -1.25,0.62 -1.87,0.63 -1.24,0.62 -1.25,0.62 -1.24,0.63 -1.25,0.62 -0.63,0.62 -1.25,0.63 -1.25,0.62 -0.62,0.62 -1.25,0.62 -0.63,0.63 -1.25,0.62 -0.62,0.62 -0.63,0.63 -1.25,0.62 -0.62,0.62 -0.63,0.62 -0.62,0.63 -1.25,0.62 -0.63,0.62 -0.62,0.63 -0.63,0.62 -0.62,0.62 -0.63,0.63 -0.62,0.62 -0.63,0.62 -0.62,0.62 -0.63,0.63 -0.62,0.62 -0.63,1.25 -0.62,0.62 -0.63,0.62 -0.62,0.63 -0.63,1.24 -0.62,0.62 -0.63,0.63 -0.62,1.24 -0.63,0.63 -0.62,1.24 -0.63,0.62 -0.62,1.25 -0.63,1.25 -0.62,1.24 -0.63,0.63 -0.62,1.24 -0.63,1.25 -0.62,1.87 -0.63,1.24 -0.62,1.25 -0.63,1.87 -0.62,1.87 -0.63,1.87 -0.62,2.49 -0.63,2.49 -0.62,3.74 -0.63,4.98 v 11.22 l 0.63,5.61 0.62,3.12 0.63,3.11 0.62,1.87 0.63,1.87 0.62,1.87 0.63,1.87 0.62,1.24 0.63,1.87 0.62,1.25 0.63,1.25 0.62,1.24 0.63,1.25 0.62,1.24 0.63,0.63 0.62,1.24 0.63,0.62 0.62,1.25 0.63,1.25 0.62,0.62 0.63,0.62 0.62,1.25 0.63,0.62 0.62,0.63 0.63,0.62 0.62,1.24 0.63,0.63 0.62,0.62 0.63,0.62 0.62,0.63 0.63,0.62 0.62,0.62 0.63,0.63 0.62,0.62 0.63,0.62 0.62,0.62 0.63,0.63 0.62,0.62 1.25,0.62 0.63,0.63 0.62,0.62 0.63,0.62 1.25,0.63 0.62,0.62 0.63,0.62 1.25,0.62 0.62,0.63 1.25,0.62 1.25,0.62 0.63,0.63 1.25,0.62 1.25,0.62 1.24,0.62 1.25,0.63 1.24,0.62 1.25,0.62 1.87,0.63 1.25,0.62 1.87,0.62 1.87,0.63 2.5,0.62 2.5,0.62 3.12,0.62 4.37,0.63 h 14.98 l 4.37,-0.63 3.12,-0.62 2.5,-0.62 2.5,-0.62 1.87,-0.63 1.87,-0.62 1.25,-0.62 1.87,-0.63 1.25,-0.62 1.25,-0.62 1.25,-0.63 1.25,-0.62 1.25,-0.62 1.25,-0.62 1.25,-0.63 0.63,-0.62 1.25,-0.62 0.62,-0.63 1.25,-0.62 0.63,-0.62 1.24,-0.62 0.63,-0.63 0.63,-0.62 0.62,-0.62 1.25,-0.63 0.62,-0.62 0.63,-0.62 0.63,-0.63 0.62,-0.62 0.62,-0.62 0.63,-0.62 0.63,-0.63 0.62,-0.62 0.62,-0.62 0.63,-0.63 0.63,-0.62 0.62,-0.62 0.62,-0.63 0.63,-0.62 0.62,-1.24 0.63,-0.63 0.62,-0.62 0.63,-1.25 0.62,-0.62 0.63,-0.62 0.62,-1.25 0.63,-0.62 0.62,-1.25 0.63,-1.24 0.62,-0.63 0.63,-1.24 0.62,-1.25 0.63,-1.24 0.62,-1.25 0.63,-1.25 0.62,-1.24 0.63,-1.87 0.62,-1.25 0.63,-1.87 0.62,-1.87 0.63,-2.49 0.62,-2.49 0.63,-3.74 0.62,-4.98 v -12.46 l -0.62,-4.99 -0.63,-3.11 -0.62,-3.11 -0.63,-1.87 -0.62,-1.87 -0.63,-1.87 -0.62,-1.87 -0.63,-1.25 -0.62,-1.87 -0.63,-1.24 -0.62,-1.25 -0.63,-1.24 -0.62,-1.25 -0.63,-0.62 -0.62,-1.25 -0.63,-1.25 -0.62,-0.62 -0.63,-1.24 -0.62,-0.63 -0.63,-1.24 -0.62,-0.63 -0.63,-1.24 -0.62,-0.62 -0.63,-0.63 -0.62,-0.62 -0.63,-1.25 -0.62,-0.62 -0.62,-0.62 -0.63,-0.63 -0.63,-0.62 -0.62,-0.62 -0.62,-0.62 -0.63,-0.63 -0.63,-0.62 -0.62,-0.62 -0.62,-0.63 -0.63,-0.62 -0.63,-0.62 -1.24,-0.63 -0.63,-0.62 -0.62,-0.62 -0.63,-0.62 -1.25,-0.63 -0.62,-0.62 -1.25,-0.62 -0.62,-0.63 -1.25,-0.62 -0.62,-0.62 -1.25,-0.62 -1.25,-0.63 -0.63,-0.62 -1.25,-0.62 -1.25,-0.63 -1.25,-0.62 -1.25,-0.62 -1.87,-0.63 -1.25,-0.62 -1.87,-0.62 -1.87,-0.62 -1.87,-0.63 -1.87,-0.62 -3.12,-0.63 -3.12,-0.62 -4.99,-0.62 h -12.48 l -4.99,0.62 z"
   id="path103" />
    <polygon
   class="fil3"
   points="2086.7,1954.09 2087.32,1953.46 2087.94,1952.22 2088.57,1951.59 2089.19,1950.97 2089.81,1950.35 2090.44,1949.72 2091.06,1948.48 2091.69,1947.85 2092.31,1947.23 2092.94,1946.61 2093.56,1945.98 2094.18,1944.74 2094.81,1944.11 2095.43,1943.49 2096.06,1942.87 2096.68,1942.24 2097.3,1941 2097.93,1940.37 2098.55,1939.75 2099.18,1939.13 2099.8,1938.5 2100.42,1937.26 2101.05,1936.63 2101.67,1936.01 2102.3,1935.39 2102.92,1934.77 2103.54,1933.52 2104.17,1932.89 2104.79,1932.27 2105.41,1931.65 2106.04,1931.03 2106.66,1929.78 2107.29,1929.16 2107.91,1928.53 2108.54,1993.35 2134.12,1993.35 2134.12,1861.22 2131.62,1861.22 2131,1861.85 2130.37,1863.09 2129.75,1863.72 2129.13,1864.34 2128.5,1864.96 2127.88,1865.59 2127.26,1866.21 2126.63,1867.46 2126.01,1868.08 2125.38,1868.7 2124.76,1869.33 2124.13,1869.95 2123.51,1870.57 2122.89,1871.82 2122.26,1872.44 2121.64,1873.07 2121.02,1873.69 2120.39,1874.31 2119.77,1874.94 2119.14,1876.18 2118.52,1876.81 2117.89,1877.43 2117.27,1878.05 2116.65,1878.68 2116.02,1879.92 2115.4,1880.54 2114.78,1881.17 2114.15,1881.79 2113.53,1882.41 2112.9,1883.04 2112.28,1884.28 2111.65,1884.91 2111.03,1885.53 2110.41,1886.15 2109.78,1886.78 2109.16,1887.4 2108.54,1888.65 2107.91,1889.27 2107.29,1889.89 2106.66,1890.52 2106.04,1891.14 2105.41,1891.76 2104.79,1893.01 2104.17,1893.63 2103.54,1894.26 2102.92,1894.88 2102.3,1895.5 2101.67,1896.13 2101.05,1897.37 2100.42,1898 2099.8,1898.62 2099.18,1899.24 2098.55,1899.87 2097.93,1901.11 2097.3,1901.74 2096.68,1902.36 2096.06,1902.98 2095.43,1903.61 2094.81,1904.23 2094.18,1905.47 2093.56,1906.1 2092.94,1906.72 2092.31,1907.34 2091.69,1907.97 2091.06,1908.59 2090.44,1909.84 2089.81,1910.46 2089.19,1911.08 2088.57,1911.7 2087.94,1912.33 2087.32,1912.95 2086.7,1914.2 2086.07,1914.82 2085.45,1915.44 2084.82,1916.07 2084.2,1916.69 2083.57,1917.31 2082.95,1918.56 2082.33,1919.19 2081.7,1919.81 2081.08,1920.43 2080.46,1921.06 2079.83,1921.68 2079.21,1922.93 2078.58,1923.55 2077.96,1924.17 2077.33,1924.8 2076.71,1925.42 2076.09,1926.67 2075.46,1927.29 2074.84,1927.91 2074.22,1928.53 2073.59,1929.16 2072.97,1929.78 2072.34,1931.03 2071.72,1931.65 2071.09,1932.27 2070.47,1932.89 2069.85,1933.52 2069.22,1934.14 2068.6,1935.39 2067.98,1936.01 2066.73,1936.01 2066.1,1934.77 2065.48,1934.14 2064.85,1933.52 2064.23,1932.89 2063.61,1932.27 2062.98,1931.65 2062.36,1930.4 2061.74,1929.78 2061.11,1929.16 2060.49,1928.53 2059.86,1927.91 2059.24,1926.67 2058.61,1926.04 2057.99,1925.42 2057.37,1924.8 2056.74,1924.17 2056.12,1923.55 2055.5,1922.3 2054.87,1921.68 2054.25,1921.06 2053.62,1920.43 2053,1919.81 2052.37,1919.19 2051.75,1917.94 2051.13,1917.31 2050.5,1916.69 2049.88,1916.07 2049.26,1915.44 2048.63,1914.82 2048.01,1913.57 2047.38,1912.95 2046.76,1912.33 2046.13,1911.7 2045.51,1911.08 2044.89,1909.84 2044.26,1909.21 2043.64,1908.59 2043.02,1907.97 2042.39,1907.34 2041.77,1906.72 2041.14,1905.47 2040.52,1904.85 2039.89,1904.23 2039.27,1903.61 2038.65,1902.98 2038.02,1902.36 2037.4,1901.11 2036.78,1900.49 2036.15,1899.87 2035.53,1899.24 2034.91,1898.62 2034.28,1897.37 2033.65,1896.75 2033.03,1896.13 2032.41,1895.5 2031.78,1894.88 2031.16,1894.26 2030.54,1893.01 2029.91,1892.39 2029.29,1891.76 2028.66,1891.14 2028.04,1890.52 2027.41,1889.89 2026.79,1888.65 2026.17,1888.02 2025.54,1887.4 2024.92,1886.78 2024.3,1886.15 2023.67,1885.53 2023.05,1884.28 2022.42,1883.66 2021.8,1883.04 2021.18,1882.41 2020.55,1881.79 2019.93,1880.54 2019.3,1879.92 2018.68,1879.3 2018.06,1878.68 2017.43,1878.05 2016.81,1877.43 2016.19,1876.18 2015.56,1875.56 2014.94,1874.94 2014.31,1874.31 2013.69,1873.69 2013.06,1873.07 2012.44,1871.82 2011.81,1871.2 2011.19,1870.57 2010.57,1869.95 2009.94,1869.33 2009.32,1868.08 2008.7,1867.46 2008.07,1866.83 2007.45,1866.21 2006.82,1865.59 2006.2,1864.96 2005.57,1863.72 2004.95,1863.09 2004.33,1862.47 2003.7,1861.85 2003.08,1861.22 2001.21,1861.22 2001.21,1993.35 2026.79,1993.35 2027.07,1927.81 2027.41,1929.16 2028.04,1929.78 2028.66,1930.4 2029.29,1931.03 2029.91,1931.65 2030.54,1932.89 2031.16,1933.52 2031.78,1934.14 2032.41,1934.77 2033.03,1935.39 2033.65,1936.63 2034.28,1937.26 2034.91,1937.88 2035.53,1938.5 2036.15,1939.13 2036.78,1940.37 2037.4,1941 2038.02,1941.62 2038.65,1942.24 2039.27,1943.49 2039.89,1944.11 2040.52,1944.74 2041.14,1945.36 2041.77,1945.98 2042.39,1947.23 2043.02,1947.85 2043.64,1948.48 2044.26,1949.1 2044.89,1949.72 2045.51,1950.97 2046.13,1951.59 2046.76,1952.22 2047.38,1952.84 2048.01,1953.46 2048.63,1954.71 2049.26,1955.33 2049.88,1955.96 2050.5,1956.58 2051.13,1957.2 2051.75,1958.45 2052.37,1959.07 2053,1959.69 2053.62,1960.32 2054.25,1960.94 2054.87,1962.19 2055.5,1962.81 2056.12,1963.43 2056.74,1964.06 2057.37,1964.68 2057.99,1965.93 2058.61,1966.55 2059.24,1967.17 2059.86,1967.8 2060.49,1969.04 2061.11,1969.67 2061.74,1970.29 2062.36,1970.91 2062.98,1971.54 2063.61,1972.78 2064.23,1973.41 2064.85,1974.03 2065.48,1974.65 2066.1,1975.28 2066.73,1976.52 2067.98,1976.52 2068.6,1975.9 2069.22,1974.65 2069.85,1974.03 2070.47,1973.41 2071.09,1972.78 2071.72,1972.16 2072.34,1970.91 2072.97,1970.29 2073.59,1969.67 2074.22,1969.04 2074.84,1968.42 2075.46,1967.17 2076.09,1966.55 2076.71,1965.93 2077.33,1965.3 2077.96,1964.68 2078.58,1963.43 2079.21,1962.81 2079.83,1962.19 2080.46,1961.56 2081.08,1960.94 2081.7,1959.69 2082.33,1959.07 2082.95,1958.45 2083.57,1957.83 2084.2,1957.2 2084.82,1955.96 2085.45,1955.33 2086.07,1954.71 "
   id="polygon104" />
    <path
   class="fil3"
   d="m 953.52,1921.68 0.63,-3.11 0.62,-2.5 0.63,-2.49 0.62,-1.24 0.63,-1.87 0.62,-1.25 0.63,-1.24 0.62,-1.25 0.63,-1.25 0.62,-1.24 0.63,-0.62 0.62,-1.25 0.63,-0.62 0.62,-1.25 0.63,-0.62 0.62,-0.63 0.62,-1.24 0.63,-0.63 0.63,-0.62 0.62,-0.62 0.62,-0.62 0.63,-0.63 0.63,-0.62 0.62,-0.62 1.25,-0.63 0.62,-0.62 0.63,-0.62 1.25,-0.63 0.62,-0.62 1.25,-0.62 0.62,-0.62 1.25,-0.63 1.25,-0.62 1.25,-0.62 1.25,-0.63 1.25,-0.62 1.87,-0.62 1.87,-0.62 1.87,-0.63 3.74,-0.62 h 10.61 l 3.74,0.62 1.87,0.63 1.87,0.62 1.87,0.62 1.25,0.62 1.25,0.63 1.25,0.62 1.25,0.62 1.25,0.63 1.25,0.62 0.63,0.62 1.25,0.62 0.62,0.63 0.63,0.62 0.62,0.62 1.25,0.63 0.63,0.62 0.62,0.62 0.63,0.63 0.62,0.62 0.63,0.62 0.62,0.62 0.63,0.63 0.62,1.24 0.63,0.63 0.62,0.62 0.63,0.62 0.62,1.25 0.62,0.62 0.63,1.25 0.63,1.24 0.62,1.25 0.62,1.25 0.63,1.24 0.63,1.25 0.62,1.24 0.63,1.87 0.62,1.87 0.62,2.49 0.63,3.74 v 11.84 l -0.63,3.11 -0.62,2.5 -0.62,1.87 -0.63,1.87 -0.62,1.25 -0.63,1.87 -0.63,1.24 -0.62,1.25 -0.62,1.25 -0.63,0.62 -0.63,1.25 -0.62,0.62 -0.62,1.24 -0.63,0.63 -0.62,0.62 -0.63,1.25 -0.62,0.62 -0.63,0.62 -0.62,0.63 -0.63,0.62 -0.62,0.62 -0.63,0.62 -0.62,0.63 -0.63,0.62 -0.62,0.62 -0.63,0.63 -1.25,0.62 -0.62,0.62 -0.63,0.62 -1.25,0.63 -0.62,0.62 -1.25,0.63 -1.25,0.62 -1.25,0.62 -1.25,0.62 -1.25,0.63 -1.25,0.62 -1.87,0.62 -1.87,0.63 -3.12,0.62 -4.99,0.62 h -4.37 l -4.99,-0.62 -2.5,-0.62 -2.5,-0.63 -1.87,-0.62 -1.25,-0.62 -1.25,-0.63 -1.25,-0.62 -1.24,-0.62 -1.25,-0.62 -1.24,-0.63 -0.63,-0.62 -1.25,-0.63 -0.62,-0.62 -0.63,-0.62 -1.25,-0.62 -0.62,-0.63 -0.63,-0.62 -0.62,-0.62 -0.63,-0.63 -0.63,-0.62 -0.62,-0.62 -0.62,-0.62 -0.63,-0.63 -0.63,-0.62 -0.62,-0.62 -0.62,-1.25 -0.63,-0.62 -0.62,-0.63 -0.63,-1.24 -0.62,-0.62 -0.63,-1.25 -0.62,-1.25 -0.63,-0.62 -0.62,-1.25 -0.63,-1.24 -0.62,-1.87 -0.63,-1.25 -0.62,-1.87 -0.63,-1.87 -0.62,-2.5 -0.63,-3.74 v -11.22 z m 31.2,-62.32 -3.74,0.62 -2.5,0.63 -2.5,0.62 -1.87,0.63 -1.87,0.62 -1.25,0.62 -1.87,0.62 -1.25,0.63 -1.25,0.62 -1.24,0.62 -1.25,0.63 -1.24,0.62 -1.25,0.62 -0.63,0.63 -1.25,0.62 -1.25,0.62 -0.62,0.62 -1.25,0.63 -0.63,0.62 -1.25,0.62 -0.62,0.63 -0.63,0.62 -0.62,0.62 -1.25,0.62 -0.63,0.63 -0.62,0.62 -0.63,0.62 -0.62,0.63 -0.63,0.62 -0.62,0.62 -0.63,0.63 -0.62,0.62 -0.63,0.62 -0.62,0.62 -0.63,0.63 -0.62,0.62 -0.63,0.62 -0.62,0.63 -0.63,1.24 -0.62,0.63 -0.63,0.62 -0.62,0.62 -0.63,1.25 -0.62,0.62 -0.63,1.25 -0.62,0.62 -0.63,1.24 -0.62,0.63 -0.63,1.24 -0.62,1.25 -0.63,1.25 -0.62,1.24 -0.63,1.25 -0.62,1.24 -0.63,1.25 -0.62,1.25 -0.63,1.87 -0.62,1.87 -0.63,1.87 -0.62,1.87 -0.63,2.49 -0.62,3.12 -0.63,4.36 v 16.2 l 0.63,4.36 0.62,3.11 0.63,2.5 0.62,1.87 0.63,2.5 0.62,1.24 0.63,1.87 0.62,1.25 0.63,1.24 0.62,1.87 0.63,1.25 0.62,1.24 0.63,0.63 0.62,1.24 0.63,1.25 0.62,0.62 0.63,1.25 0.62,1.25 0.63,0.62 0.62,0.62 0.63,1.25 0.62,0.62 0.63,0.62 0.62,1.25 0.63,0.62 0.62,0.62 0.63,0.63 0.62,0.62 0.63,0.62 0.62,0.63 0.63,0.62 0.62,0.62 0.63,0.63 0.62,0.62 0.63,0.62 0.62,0.62 0.63,0.63 0.62,0.62 0.63,0.62 0.62,0.63 1.25,0.62 0.63,0.62 0.62,0.63 1.25,0.62 0.63,0.62 0.62,0.62 1.25,0.63 1.25,0.62 0.63,0.62 1.25,0.63 1.25,0.62 1.24,0.62 0.63,0.62 1.87,0.63 1.25,0.62 1.25,0.62 1.24,0.63 1.87,0.62 1.87,0.62 1.87,0.63 1.87,0.62 2.5,0.62 3.12,0.62 4.99,0.63 h 14.35 l 4.99,-0.63 3.12,-0.62 2.5,-0.62 2.5,-0.62 1.87,-0.63 1.87,-0.62 1.25,-0.62 1.25,-0.63 1.87,-0.62 1.25,-0.62 1.25,-0.63 1.25,-0.62 1.25,-0.62 0.63,-0.62 1.24,-0.63 1.25,-0.62 0.62,-0.62 1.25,-0.63 0.63,-0.62 1.25,-0.62 0.62,-0.62 0.62,-0.63 1.25,-0.62 0.62,-0.62 0.62,-0.63 0.63,-0.62 1.25,-0.62 0.62,-0.63 0.63,-0.62 0.63,-0.62 0.62,-0.62 0.62,-0.63 0.63,-0.62 0.62,-0.62 0.63,-0.63 0.62,-0.62 0.63,-1.25 0.62,-0.62 0.63,-0.62 0.62,-0.62 0.63,-0.63 0.62,-1.24 0.63,-0.63 0.62,-0.62 0.63,-1.24 0.62,-0.63 0.63,-1.25 0.62,-1.24 0.63,-0.62 0.62,-1.25 0.63,-1.25 0.62,-1.24 0.63,-1.25 0.62,-1.24 0.63,-1.25 0.62,-1.25 0.63,-1.87 0.62,-1.25 0.63,-1.87 0.62,-2.49 0.63,-1.87 0.62,-3.11 0.63,-3.74 0.62,-7.48 v -4.36 l -0.62,-8.1 -0.63,-3.74 -0.62,-2.49 -0.63,-2.49 -0.62,-1.87 -0.63,-1.87 -0.62,-1.87 -0.63,-1.24 -0.62,-1.87 -0.63,-1.25 -0.62,-1.25 -0.63,-1.24 -0.62,-1.25 -0.63,-1.24 -0.62,-1.25 -0.63,-0.62 -0.62,-1.25 -0.63,-0.62 -0.62,-1.25 -0.63,-0.62 -0.62,-1.25 -0.63,-0.62 -0.62,-0.62 -0.63,-1.25 -0.62,-0.62 -0.63,-0.62 -0.62,-0.63 -0.63,-0.62 -0.62,-1.25 -0.63,-0.62 -0.62,-0.62 -0.63,-0.62 -0.62,-0.63 -0.62,-0.62 -0.63,-0.62 -1.25,-0.63 -0.62,-0.62 -0.63,-0.62 -0.63,-0.63 -0.62,-0.62 -0.62,-0.62 -1.25,-0.62 -0.62,-0.63 -0.62,-0.62 -1.25,-0.62 -0.63,-0.63 -1.25,-0.62 -1.25,-0.62 -0.63,-0.62 -1.24,-0.63 -1.25,-0.62 -1.25,-0.62 -0.63,-0.63 -1.87,-0.62 -1.25,-0.62 -1.25,-0.63 -1.25,-0.62 -1.87,-0.62 -1.87,-0.62 -1.87,-0.63 -2.5,-0.62 -2.5,-0.63 -3.12,-0.62 -5.62,-0.62 H 989.7 l -4.99,0.62 z"
   id="path104" />
    <polygon
   class="fil3"
   points="1171.29,1975.9 1172.54,1976.52 1173.16,1977.15 1173.79,1977.77 1174.41,1978.39 1175.04,1979.02 1175.66,1979.64 1176.28,1980.26 1176.91,1980.89 1177.53,1981.51 1178.78,1982.13 1179.4,1982.76 1180.03,1983.38 1180.65,1984 1181.28,1984.62 1181.9,1985.25 1182.52,1985.87 1183.15,1986.49 1183.77,1987.12 1185.02,1987.74 1185.64,1988.36 1186.27,1988.98 1186.89,1989.61 1187.52,1990.23 1188.14,1990.85 1188.76,1991.48 1189.39,1992.1 1190.01,1992.72 1191.26,1993.35 1194.38,1993.35 1194.38,1861.22 1168.8,1861.22 1168.17,1939.13 1167.55,1938.5 1166.3,1937.88 1165.68,1937.26 1165.05,1936.63 1164.43,1936.01 1163.8,1935.39 1163.18,1934.77 1162.56,1934.14 1161.93,1933.52 1161.31,1932.89 1160.69,1932.27 1160.06,1931.65 1158.81,1931.03 1158.19,1930.4 1157.56,1929.78 1156.94,1929.16 1156.31,1928.53 1155.69,1927.91 1155.07,1927.29 1154.44,1926.67 1153.82,1926.04 1153.2,1925.42 1152.57,1924.8 1151.32,1924.17 1150.7,1923.55 1150.07,1922.93 1149.45,1922.3 1148.83,1921.68 1148.2,1921.06 1147.58,1920.43 1146.96,1919.81 1146.33,1919.19 1145.71,1918.56 1145.08,1917.94 1144.46,1917.31 1143.21,1916.69 1142.59,1916.07 1141.96,1915.44 1141.34,1914.82 1140.72,1914.2 1140.09,1913.57 1139.47,1912.95 1138.84,1912.33 1138.22,1911.7 1137.59,1911.08 1136.97,1910.46 1135.72,1909.84 1135.1,1909.21 1134.48,1908.59 1133.85,1907.97 1133.23,1907.34 1132.6,1906.72 1131.98,1906.1 1131.35,1905.47 1130.73,1904.85 1130.11,1904.23 1129.48,1903.61 1128.24,1902.98 1127.61,1902.36 1126.99,1901.74 1126.36,1901.11 1125.74,1900.49 1125.11,1899.87 1124.49,1899.24 1123.87,1898.62 1123.24,1898 1122.62,1897.37 1122,1896.75 1120.75,1896.13 1120.12,1895.5 1119.5,1894.88 1118.87,1894.26 1118.25,1893.63 1117.63,1893.01 1117,1892.39 1116.38,1891.76 1115.76,1891.14 1115.13,1890.52 1114.51,1889.89 1113.88,1889.27 1112.63,1888.65 1112.01,1888.02 1111.39,1887.4 1110.76,1886.78 1110.14,1886.15 1109.52,1885.53 1108.89,1884.91 1108.27,1884.28 1107.65,1883.66 1107.02,1883.04 1106.39,1882.41 1105.15,1881.79 1104.52,1881.17 1103.9,1880.54 1103.28,1879.92 1102.65,1879.3 1102.03,1878.68 1101.41,1878.05 1100.78,1877.43 1100.15,1876.81 1099.53,1876.18 1098.91,1875.56 1097.66,1874.94 1097.04,1874.31 1096.41,1873.69 1095.79,1873.07 1095.17,1872.44 1094.54,1871.82 1093.92,1871.2 1093.29,1870.57 1092.67,1869.95 1092.04,1869.33 1091.42,1868.7 1090.8,1868.08 1089.55,1867.46 1088.93,1866.83 1088.3,1866.21 1087.68,1865.59 1087.05,1864.96 1086.43,1864.34 1085.8,1863.72 1085.18,1863.09 1084.56,1862.47 1083.93,1861.85 1083.31,1861.22 1079.56,1861.22 1079.56,1993.35 1105.15,1993.35 1105.77,1916.69 1106.39,1917.31 1107.02,1917.94 1108.27,1918.56 1108.89,1919.19 1109.52,1919.81 1110.14,1920.43 1110.76,1921.06 1111.39,1921.68 1112.01,1922.3 1112.63,1922.93 1113.26,1923.55 1113.88,1924.17 1115.13,1924.8 1115.76,1925.42 1116.38,1926.04 1117,1926.67 1117.63,1927.29 1118.25,1927.91 1118.87,1928.53 1119.5,1929.16 1120.12,1929.78 1121.37,1930.4 1122,1931.03 1122.62,1931.65 1123.24,1932.27 1123.87,1932.89 1124.49,1933.52 1125.11,1934.14 1125.74,1934.77 1126.36,1935.39 1127.61,1936.01 1128.24,1936.63 1128.86,1937.26 1129.48,1937.88 1130.11,1938.5 1130.73,1939.13 1131.35,1939.75 1131.98,1940.37 1132.6,1941 1133.85,1941.62 1134.48,1942.24 1135.1,1942.87 1135.72,1943.49 1136.35,1944.11 1136.97,1944.74 1137.59,1945.36 1138.22,1945.98 1138.84,1946.61 1140.09,1947.23 1140.72,1947.85 1141.34,1948.48 1141.96,1949.1 1142.59,1949.72 1143.21,1950.35 1143.83,1950.97 1144.46,1951.59 1145.08,1952.22 1145.71,1952.84 1146.96,1953.46 1147.58,1954.09 1148.2,1954.71 1148.83,1955.33 1149.45,1955.96 1150.07,1956.58 1150.7,1957.2 1151.32,1957.83 1151.95,1958.45 1153.2,1959.07 1153.82,1959.69 1154.44,1960.32 1155.07,1960.94 1155.69,1961.56 1156.31,1962.19 1156.94,1962.81 1157.56,1963.43 1158.19,1964.06 1159.44,1964.68 1160.06,1965.3 1160.69,1965.93 1161.31,1966.55 1161.93,1967.17 1162.56,1967.8 1163.18,1968.42 1163.8,1969.04 1164.43,1969.67 1165.68,1970.29 1166.3,1970.91 1166.92,1971.54 1167.55,1972.16 1168.17,1972.78 1168.8,1973.41 1169.42,1974.03 1170.04,1974.65 1170.67,1975.28 "
   id="polygon105" />
    <polygon
   class="fil3"
   points="1243.05,1884.28 1243.05,1993.35 1268.63,1993.35 1268.63,1884.28 1306.07,1884.28 1306.07,1861.22 1204.99,1861.22 1204.99,1884.28 "
   id="polygon106" />
    <path
   class="fil3"
   d="m 1395.31,1913.57 -0.63,1.87 -0.62,1.25 -0.63,1.24 -0.62,1.25 -0.63,0.62 -0.62,1.25 -0.63,0.62 -0.62,0.62 -0.63,0.63 -0.62,0.62 -0.63,0.62 -1.25,0.63 -0.62,0.62 -1.25,0.62 -1.25,0.63 -1.87,0.62 -1.87,0.62 -38.06,0.62 v -44.26 l 38.69,0.64 2.5,0.62 1.87,0.62 1.25,0.62 0.62,0.63 1.25,0.62 0.63,0.62 0.62,0.63 0.63,0.62 0.62,0.62 0.63,0.62 0.62,1.25 0.63,0.62 0.62,1.25 0.63,1.25 0.62,1.87 0.63,2.5 0.62,3.74 v 6.85 l -0.62,3.11 z m -78.63,79.78 h 25.59 v -41.78 l 24.33,0.65 0.62,0.62 0.63,1.25 0.63,0.62 0.62,1.25 0.62,0.62 0.63,1.25 0.63,0.62 0.62,0.62 0.62,1.25 0.63,0.62 0.62,1.25 0.63,0.62 0.62,0.62 0.63,1.25 0.62,0.62 0.63,1.25 0.62,0.62 0.63,0.62 0.62,1.25 0.63,0.62 0.62,1.25 0.63,0.62 0.62,0.62 0.63,1.25 0.62,0.62 0.63,0.63 0.62,1.24 0.63,0.63 0.62,1.24 0.63,0.62 0.62,0.63 0.63,1.24 0.62,0.63 0.63,0.62 0.62,1.25 0.63,0.62 0.62,0.62 0.63,1.25 0.62,0.62 0.63,0.62 0.62,1.25 0.63,0.62 0.62,0.62 0.63,1.25 0.62,0.62 0.63,0.63 0.62,0.62 0.63,1.25 h 31.2 v -0.63 l -0.62,-1.24 -0.62,-0.63 -0.63,-1.24 -0.63,-0.63 -0.62,-0.62 -0.62,-1.24 -0.63,-0.63 -0.62,-0.62 -0.63,-1.25 -0.62,-0.62 -0.63,-1.24 -0.62,-0.63 -0.63,-0.62 -0.62,-1.25 -0.63,-0.62 -0.62,-0.62 -0.63,-1.25 -0.62,-0.62 -0.63,-0.62 -0.62,-1.25 -0.63,-0.62 -0.62,-0.63 -0.63,-1.24 -0.62,-0.63 -0.63,-0.62 -0.62,-1.24 -0.63,-0.63 -0.62,-0.62 -0.63,-1.25 -0.62,-0.62 -0.63,-1.24 -0.62,-0.63 -0.63,-0.62 -0.62,-1.25 -0.63,-0.62 -0.62,-0.62 -0.63,-1.25 -0.62,-0.62 -0.63,-0.63 -0.62,-1.24 -0.63,-0.62 -0.62,-0.63 -0.63,-0.62 -0.62,-1.25 -0.63,-0.62 -0.62,-0.62 -0.63,-1.25 -0.62,-0.62 -0.63,-0.62 -0.62,-1.25 -0.63,-0.62 v -0.63 l 1.25,-0.62 1.25,-0.62 1.25,-0.63 1.25,-0.62 0.63,-0.62 1.25,-0.62 1.25,-0.63 0.62,-0.62 0.63,-0.62 0.62,-0.63 1.25,-0.62 0.63,-0.62 0.62,-0.62 0.63,-0.63 0.62,-0.62 0.63,-0.62 0.62,-0.63 0.63,-0.62 0.62,-1.25 0.63,-0.62 0.62,-0.62 0.63,-0.62 0.62,-1.25 0.63,-0.63 0.62,-1.24 0.63,-1.25 0.62,-0.62 0.63,-1.25 0.62,-1.24 0.63,-1.87 0.62,-1.25 0.63,-1.87 0.62,-2.49 0.63,-3.11 0.62,-4.36 v -11.22 l -0.62,-4.36 -0.63,-2.49 -0.62,-2.49 -0.63,-1.87 -0.62,-1.87 -0.63,-1.25 -0.62,-1.24 -0.63,-1.25 -0.62,-1.24 -0.63,-1.25 -0.62,-0.62 -0.63,-1.25 -0.62,-0.62 -0.63,-1.25 -0.62,-0.62 -0.63,-0.62 -0.62,-1.25 -0.63,-0.62 -0.62,-0.63 -0.63,-0.62 -0.62,-0.62 -0.63,-0.62 -0.62,-0.63 -1.25,-0.62 -0.63,-0.62 -0.62,-0.63 -0.63,-0.62 -1.25,-0.62 -0.62,-0.62 -1.25,-0.63 -1.25,-0.62 -1.25,-0.62 -1.25,-0.63 -1.25,-0.62 -1.25,-0.62 -1.87,-0.63 -1.87,-0.62 -2.5,-0.62 -2.5,-0.62 -4.99,-0.63 h -64.9 v 132.13 z"
   id="path106" />
    <polygon
   class="fil3"
   points="1709.8,1970.91 1709.18,1970.29 1707.93,1969.67 1707.31,1969.04 1706.06,1968.42 1703.56,1967.8 1697.32,1967.8 1695.45,1968.42 1693.58,1969.04 1692.95,1969.67 1692.33,1970.29 1691.08,1970.91 1690.46,1971.54 1689.83,1972.16 1689.21,1973.41 1688.59,1974.03 1687.96,1975.28 1687.34,1976.52 1686.71,1980.26 1686.71,1982.13 1687.34,1985.87 1687.96,1987.12 1688.59,1988.36 1689.21,1989.61 1689.83,1990.23 1690.46,1990.85 1691.08,1991.48 1691.7,1992.1 1692.33,1992.72 1693.58,1993.35 1694.82,1993.97 1696.7,1994.59 1704.81,1994.59 1706.06,1993.97 1707.31,1993.35 1708.55,1992.72 1709.18,1992.1 1709.8,1991.48 1710.43,1990.85 1711.05,1990.23 1711.67,1989.61 1712.3,1988.98 1712.92,1987.74 1713.54,1986.49 1714.17,1984 1714.17,1978.39 1713.54,1976.52 1712.92,1974.65 1712.3,1974.03 1711.67,1972.78 1711.05,1972.16 1710.43,1971.54 "
   id="polygon107" />
   </g>
  </g><path
     style="fill:#184695;fill-opacity:0.996078;stroke-width:0.636402"
     d="m 60.135864,1565.7119 v -65.8676 h 31.846934 c 36.345952,0 37.876102,0.1541 47.385132,4.7609 9.47204,4.5894 17.35724,12.3956 21.93856,21.7189 3.4087,6.9369 4.45136,11.7666 4.46272,20.6713 0.024,18.6459 -7.65399,31.8 -22.94894,39.3175 -10.79507,5.3058 -11.22197,5.3733 -35.74975,5.6542 l -21.478572,0.2458 v 19.6834 19.6832 H 72.863905 60.135864 Z m 65.984436,2.4869 c 6.61384,-1.8182 11.3231,-7.0899 13.30738,-14.8967 1.19648,-4.7074 0.93594,-10.6551 -0.66896,-15.2736 -2.30138,-6.6227 -9.6415,-13.3734 -15.84088,-14.569 -1.8031,-0.3479 -10.93904,-0.7354 -20.3021,-0.8614 l -17.023761,-0.2292 v 23.6862 23.686 l 18.614761,-0.3177 c 13.27734,-0.2271 19.56064,-0.5781 21.91359,-1.225 z"
     id="path124" /><path
     style="fill:#184695;fill-opacity:0.996078;stroke-width:0.636402"
     d="m 175.96104,1565.7119 v -65.8676 h 48.36657 48.36655 v 11.1371 11.137 h -35.95672 -35.95671 v 16.5464 16.5465 h 31.8201 31.82011 v 11.4552 11.4552 h -31.82011 -31.8201 v 15.2737 15.2737 h 35.95671 35.95672 v 11.4552 11.4552 h -48.36655 -48.36657 z"
     id="path125" /><path
     style="fill:#184695;fill-opacity:0.996078;stroke-width:0.636402"
     d="m 292.42263,1565.6816 v -65.8978 l 34.84302,0.2135 c 38.77645,0.2375 37.7437,0.1333 47.25285,4.7852 6.0098,2.9402 14.60851,11.2575 17.59335,17.0177 4.32052,8.3378 5.00002,11.5886 4.98832,23.8651 -0.01,9.9996 -0.16073,11.5594 -1.48022,15.2736 -2.0672,5.8187 -6.33579,12.3778 -11.03859,16.9618 -4.1821,4.0766 -10.55822,8.4943 -12.25969,8.4943 -0.54188,0 -0.98521,0.4302 -0.98521,0.9573 0,0.526 7.15907,10.4779 15.90904,22.1149 8.74998,11.637 15.90951,21.3729 15.91006,21.6354 5.5e-4,0.2625 -6.84075,0.4771 -15.2029,0.4771 h -15.20391 l -7.00093,-9.3869 c -11.60516,-15.5603 -22.41305,-30.8828 -22.41305,-31.7753 0,-0.6688 -2.66266,-0.8406 -13.04624,-0.8406 h -13.04625 v 21.0012 21.0013 H 304.83244 292.4226 Z m 65.58708,0.2938 c 5.73164,-1.4299 11.84668,-7.8924 13.38138,-14.1417 1.09405,-4.4549 0.45896,-14.0514 -1.17411,-17.7433 -1.9493,-4.4067 -6.04654,-8.5233 -9.91781,-9.9645 -2.91201,-1.0842 -5.52229,-1.2511 -23.16929,-1.4807 l -19.88756,-0.2583 v 22.4757 22.4757 l 19.25116,-0.399 c 10.58813,-0.2198 20.27044,-0.6531 21.51623,-0.9635 z"
     id="path126" /><path
     style="fill:#184695;fill-opacity:0.996078;stroke-width:0.636402"
     d="m 462.50089,1633.4466 c -14.45449,-1.8793 -28.90825,-9.8375 -35.98799,-19.8149 -4.23098,-5.9627 -8.00137,-13.9586 -9.50147,-20.1497 -1.27085,-5.245 -1.34347,-7.5086 -1.59015,-49.5668 l -0.25844,-44.0709 h 13.08896 13.08897 l 0.0115,39.6161 c 0.006,21.7887 0.28177,42.1881 0.6125,45.3319 1.10696,10.5253 6.85781,19.0414 15.75937,23.3373 4.08211,1.97 4.74037,2.0881 12.99401,2.3326 7.68138,0.2271 9.18357,0.094 12.8964,-1.141 9.35796,-3.1141 16.91627,-11.959 18.76487,-21.959 0.4351,-2.3535 0.6926,-14.6686 0.6926,-33.1201 0,-16.1554 0.18854,-35.0039 0.41907,-41.8856 l 0.41906,-12.5122 h 12.309 12.30899 v 44.4666 44.4665 l -1.51522,5.9683 c -2.72189,10.7214 -7.4117,18.644 -15.2335,25.7344 -4.4441,4.0286 -15.53371,9.8591 -21.70546,11.4118 -8.33176,2.0963 -18.84709,2.6892 -27.57273,1.5547 z"
     id="path127" /></g><g
   id="g231"
   style="clip-rule:evenodd;display:inline;fill:#ffffff;fill-rule:evenodd;image-rendering:optimizeQuality;shape-rendering:geometricPrecision;text-rendering:geometricPrecision"
   transform="translate(-1626.1825,-797.27296)"><path
     class="fil13"
     d="m 1765.82,2565.49 c -5.32,0 -10.24,-1.23 -14.84,-3.79 -4.6,-2.56 -8.29,-6.45 -11.05,-11.77 -2.87,-5.42 -4.3,-12.28 -4.3,-20.78 v -2.05 c 0,-6.14 0.82,-11.46 2.46,-15.86 1.64,-4.4 3.89,-8.09 6.65,-10.95 2.76,-2.87 6.04,-5.02 9.62,-6.35 3.69,-1.43 7.47,-2.15 11.46,-2.15 3.89,0 7.47,0.51 10.65,1.54 3.28,1.02 6.14,2.46 8.59,4.4 2.46,1.94 4.5,4.3 6.04,7.06 1.54,2.76 2.46,5.94 2.87,9.52 h -10.24 c -0.92,-4.6 -2.97,-8.08 -6.04,-10.44 -3.07,-2.35 -7.06,-3.48 -11.87,-3.48 -3.38,0 -6.55,0.82 -9.62,2.56 -3.07,1.74 -5.53,4.5 -7.47,8.5 -1.94,3.89 -2.86,9.11 -2.86,15.66 v 2.05 c 0,5.22 0.61,9.52 1.74,13.1 1.23,3.58 2.87,6.34 4.81,8.49 1.94,2.15 4.09,3.79 6.45,4.71 2.35,0.92 4.71,1.43 6.96,1.43 5.32,0 9.52,-1.33 12.49,-3.89 2.96,-2.56 4.81,-5.93 5.42,-10.03 h 10.24 c -0.51,3.99 -1.64,7.37 -3.28,10.23 -1.64,2.87 -3.69,5.22 -6.24,6.96 -2.46,1.84 -5.32,3.17 -8.49,4.09 -3.17,0.82 -6.55,1.23 -10.13,1.23 z"
     id="path194"
     style="clip-rule:evenodd;fill:#ffffff;fill-rule:evenodd;image-rendering:optimizeQuality;shape-rendering:geometricPrecision;text-rendering:geometricPrecision" /><path
     id="_1"
     class="fil13"
     d="m 1836.96,2565.49 c -4.09,0 -8.09,-0.72 -11.87,-2.05 -3.79,-1.43 -7.17,-3.58 -10.13,-6.55 -2.97,-2.97 -5.43,-6.65 -7.17,-11.26 -1.74,-4.61 -2.56,-10.03 -2.56,-16.48 v -2.05 c 0,-6.14 0.82,-11.46 2.56,-15.86 1.74,-4.4 4.2,-8.09 7.17,-10.95 2.96,-2.97 6.34,-5.12 10.13,-6.45 3.79,-1.33 7.78,-2.05 11.87,-2.05 4.09,0 7.98,0.72 11.77,2.05 3.78,1.33 7.26,3.48 10.23,6.45 2.97,2.87 5.32,6.55 7.06,10.95 1.74,4.4 2.66,9.72 2.66,15.86 v 2.05 c 0,6.45 -0.92,11.87 -2.66,16.48 -1.74,4.6 -4.09,8.29 -7.06,11.26 -2.97,2.97 -6.45,5.12 -10.23,6.55 -3.79,1.33 -7.68,2.05 -11.77,2.05 z m 0,-8.6 c 3.79,0 7.27,-0.92 10.44,-2.76 3.27,-1.84 5.93,-4.81 7.98,-8.9 2.05,-4.09 3.07,-9.42 3.07,-16.07 v -2.05 c 0,-6.24 -1.02,-11.36 -3.07,-15.25 -2.05,-3.99 -4.71,-6.86 -7.98,-8.7 -3.17,-1.84 -6.65,-2.76 -10.44,-2.76 -3.69,0 -7.17,0.92 -10.44,2.76 -3.28,1.84 -5.94,4.71 -7.98,8.7 -2.05,3.89 -3.07,9 -3.07,15.25 v 2.05 c 0,6.65 1.02,11.98 3.07,16.07 2.05,4.09 4.71,7.06 7.98,8.9 3.28,1.84 6.76,2.76 10.44,2.76 z"
     style="fill:#ffffff;fill-rule:nonzero" /><polygon
     id="_2"
     class="fil13"
     points="1942.38,2492.82 1942.38,2564.46 1932.96,2564.46 1894.48,2508.69 1894.48,2564.46 1885.06,2564.46 1885.06,2492.82 1894.48,2492.82 1932.96,2548.6 1932.96,2492.82 "
     style="fill:#ffffff;fill-rule:nonzero" /><polygon
     id="_3"
     class="fil13"
     points="1979.53,2501.21 1954.66,2501.21 1954.66,2492.82 2014.02,2492.82 2014.02,2501.21 1989.15,2501.21 1989.15,2564.46 1979.53,2564.46 "
     style="fill:#ffffff;fill-rule:nonzero" /><path
     id="_4"
     class="fil13"
     d="m 2026.31,2564.46 v -71.65 h 25.07 c 6.04,0 10.95,0.92 14.94,2.87 3.99,1.84 7.06,4.4 9.11,7.68 2.05,3.17 3.07,6.86 3.07,10.95 0,4.81 -1.43,9.01 -4.2,12.59 -2.87,3.58 -7.06,6.04 -12.59,7.47 l 18.83,30.09 h -11.36 l -17.09,-28.86 h -16.17 v 28.86 h -9.62 z m 9.62,-37.05 h 14.43 c 6.65,0 11.36,-1.23 14.23,-3.58 2.86,-2.46 4.3,-5.63 4.3,-9.52 0,-3.89 -1.43,-7.06 -4.3,-9.52 -2.87,-2.35 -7.57,-3.58 -14.23,-3.58 h -14.43 z"
     style="fill:#ffffff;fill-rule:nonzero" /><path
     id="_5"
     class="fil13"
     d="m 2123.54,2565.49 c -4.09,0 -8.09,-0.72 -11.87,-2.05 -3.79,-1.43 -7.17,-3.58 -10.13,-6.55 -2.97,-2.97 -5.43,-6.65 -7.17,-11.26 -1.74,-4.61 -2.56,-10.03 -2.56,-16.48 v -2.05 c 0,-6.14 0.82,-11.46 2.56,-15.86 1.74,-4.4 4.2,-8.09 7.17,-10.95 2.96,-2.97 6.34,-5.12 10.13,-6.45 3.79,-1.33 7.78,-2.05 11.87,-2.05 4.09,0 7.98,0.72 11.77,2.05 3.78,1.33 7.26,3.48 10.23,6.45 2.97,2.87 5.32,6.55 7.06,10.95 1.74,4.4 2.66,9.72 2.66,15.86 v 2.05 c 0,6.45 -0.92,11.87 -2.66,16.48 -1.74,4.6 -4.09,8.29 -7.06,11.26 -2.97,2.97 -6.45,5.12 -10.23,6.55 -3.79,1.33 -7.68,2.05 -11.77,2.05 z m 0,-8.6 c 3.79,0 7.27,-0.92 10.44,-2.76 3.27,-1.84 5.93,-4.81 7.98,-8.9 2.05,-4.09 3.07,-9.42 3.07,-16.07 v -2.05 c 0,-6.24 -1.02,-11.36 -3.07,-15.25 -2.05,-3.99 -4.71,-6.86 -7.98,-8.7 -3.17,-1.84 -6.65,-2.76 -10.44,-2.76 -3.69,0 -7.17,0.92 -10.44,2.76 -3.28,1.84 -5.94,4.71 -7.98,8.7 -2.05,3.89 -3.07,9 -3.07,15.25 v 2.05 c 0,6.65 1.02,11.98 3.07,16.07 2.05,4.09 4.71,7.06 7.98,8.9 3.28,1.84 6.76,2.76 10.44,2.76 z"
     style="fill:#ffffff;fill-rule:nonzero" /><polygon
     id="_6"
     class="fil13"
     points="2171.65,2492.82 2181.26,2492.82 2181.26,2556.07 2217.7,2556.07 2217.7,2564.46 2171.65,2564.46 "
     style="fill:#ffffff;fill-rule:nonzero" /><path
     id="_7"
     class="fil13"
     d="m 2874.18,2564.46 v -71.65 h 20.98 c 7.17,0 13.31,1.33 18.43,3.89 5.11,2.56 9,6.45 11.77,11.46 2.76,5.11 4.09,11.46 4.09,18.93 v 2.05 c 0,7.68 -1.43,14.13 -4.2,19.34 -2.76,5.22 -6.86,9.21 -12.18,11.87 -5.22,2.76 -11.57,4.09 -18.94,4.09 h -19.96 z m 9.62,-8.39 h 9.31 c 5.43,0 10.03,-0.92 13.92,-2.76 3.89,-1.84 6.86,-4.71 9,-8.7 2.15,-3.99 3.17,-9.11 3.17,-15.46 v -2.05 c 0,-6.14 -1.02,-11.06 -3.07,-14.84 -2.04,-3.79 -4.91,-6.65 -8.7,-8.39 -3.79,-1.74 -8.19,-2.66 -13.31,-2.66 h -10.34 v 54.86 z"
     style="fill:#ffffff;fill-rule:nonzero" /><polygon
     id="_8"
     class="fil13"
     points="2945.82,2492.82 2991.88,2492.82 2991.88,2501.21 2955.44,2501.21 2955.44,2523.42 2988.81,2523.42 2988.81,2531.81 2955.44,2531.81 2955.44,2556.07 2991.88,2556.07 2991.88,2564.46 2945.82,2564.46 "
     style="fill:#ffffff;fill-rule:nonzero" /><path
     id="_9"
     class="fil13"
     d="m 3033.84,2564.46 v -71.65 h 24.56 c 6.35,0 11.57,0.92 15.56,2.87 4.09,1.84 7.16,4.4 9.11,7.78 1.94,3.28 2.97,7.06 2.97,11.36 0,4.2 -1.02,7.98 -2.97,11.36 -1.94,3.38 -5.02,5.94 -9.11,7.88 -3.99,1.84 -9.21,2.76 -15.56,2.76 h -14.94 v 27.63 h -9.62 z m 9.62,-36.03 h 14.43 c 6.86,0 11.67,-1.23 14.43,-3.69 2.76,-2.46 4.09,-5.73 4.09,-9.93 0,-4.19 -1.33,-7.47 -4.09,-9.93 -2.76,-2.46 -7.57,-3.69 -14.43,-3.69 h -14.43 v 27.22 z"
     style="fill:#ffffff;fill-rule:nonzero" /><polygon
     id="_10"
     class="fil13"
     points="3100.88,2492.82 3110.5,2492.82 3110.5,2556.07 3146.94,2556.07 3146.94,2564.46 3100.88,2564.46 "
     style="fill:#ffffff;fill-rule:nonzero" /><path
     id="_11"
     class="fil13"
     d="m 3154.1,2564.46 27.43,-71.65 h 9.62 l 27.43,71.65 h -10.44 l -6.85,-17.81 h -30.3 l -6.85,17.81 h -10.03 z m 20.06,-26.2 h 23.95 l -11.98,-33.16 -11.98,33.16 z"
     style="fill:#ffffff;fill-rule:nonzero" /><path
     id="_12"
     class="fil13"
     d="m 3255.94,2565.49 c -5.63,0 -10.75,-1.23 -15.56,-3.79 -4.71,-2.56 -8.49,-6.45 -11.36,-11.77 -2.87,-5.42 -4.3,-12.28 -4.3,-20.78 v -2.05 c 0,-6.14 0.82,-11.46 2.46,-15.86 1.64,-4.4 3.89,-8.09 6.76,-10.95 2.96,-2.87 6.24,-5.02 10.03,-6.35 3.79,-1.43 7.78,-2.15 11.98,-2.15 3.48,0 6.76,0.51 9.72,1.54 2.97,0.92 5.73,2.35 8.08,4.2 2.35,1.84 4.4,4.09 6.04,6.76 1.74,2.66 2.97,5.63 3.79,9 h -10.24 c -0.92,-2.96 -2.35,-5.42 -4.19,-7.37 -1.74,-1.94 -3.79,-3.28 -6.04,-4.2 -2.35,-0.92 -4.71,-1.33 -7.17,-1.33 -3.69,0 -7.17,0.82 -10.34,2.56 -3.17,1.74 -5.83,4.5 -7.78,8.5 -1.94,3.89 -2.86,9.11 -2.86,15.66 v 2.05 c 0,5.22 0.61,9.52 1.84,13.1 1.23,3.58 2.87,6.34 4.81,8.49 2.05,2.15 4.3,3.79 6.76,4.71 2.56,0.92 5.02,1.43 7.57,1.43 3.79,0 7.17,-0.72 9.93,-2.05 2.87,-1.43 5.11,-3.69 6.85,-6.65 1.74,-3.07 2.87,-7.06 3.17,-11.87 h -17.91 v -8.19 h 27.12 v 3.07 c 0,5.53 -0.72,10.44 -2.05,14.74 -1.33,4.19 -3.28,7.78 -5.83,10.74 -2.56,2.87 -5.63,5.02 -9.21,6.55 -3.58,1.54 -7.57,2.25 -12.08,2.25 z"
     style="fill:#ffffff;fill-rule:nonzero" /><path
     id="_13"
     class="fil13"
     d="m 3290.74,2564.46 27.43,-71.65 h 9.62 l 27.43,71.65 h -10.44 l -6.85,-17.81 h -30.3 l -6.85,17.81 h -10.03 z m 20.06,-26.2 h 23.95 l -11.98,-33.16 -11.98,33.16 z"
     style="fill:#ffffff;fill-rule:nonzero" /><path
     id="_14"
     class="fil13"
     d="m 3389,2565.49 c -5.73,0 -10.54,-0.92 -14.33,-2.66 -3.78,-1.74 -6.65,-4.2 -8.7,-7.17 -2.05,-3.07 -3.38,-6.45 -4.09,-10.13 h 9.62 c 0.72,3.17 2.45,5.83 5.11,8.08 2.66,2.15 6.76,3.28 12.39,3.28 5.73,0 10.13,-1.13 13.1,-3.28 2.97,-2.15 4.4,-4.91 4.4,-8.08 0,-2.66 -0.61,-4.81 -1.84,-6.45 -1.23,-1.54 -3.28,-2.87 -6.04,-3.99 -2.87,-1.13 -6.76,-2.25 -11.57,-3.38 -5.32,-1.13 -9.72,-2.56 -13.1,-4.09 -3.37,-1.54 -5.93,-3.69 -7.57,-6.35 -1.64,-2.66 -2.46,-6.14 -2.46,-10.54 0,-3.58 1.02,-6.76 2.97,-9.52 2.05,-2.87 4.91,-5.12 8.7,-6.86 3.79,-1.74 8.19,-2.56 13.41,-2.56 5.12,0 9.42,0.82 12.8,2.56 3.38,1.74 6.04,3.99 7.98,6.86 1.94,2.76 3.17,5.94 3.79,9.52 h -9.62 c -0.72,-2.87 -2.15,-5.32 -4.3,-7.27 -2.25,-2.05 -5.83,-3.07 -10.65,-3.07 -4.91,0 -8.7,1.02 -11.46,3.07 -2.66,1.94 -3.99,4.4 -3.99,7.27 0,3.78 1.43,6.55 4.2,8.29 2.76,1.74 7.27,3.28 13.41,4.61 4.4,0.92 8.19,2.05 11.36,3.28 3.17,1.23 5.83,2.66 7.88,4.4 1.94,1.64 3.48,3.58 4.4,5.94 0.92,2.35 1.33,5.12 1.33,8.29 0,3.68 -1.13,7.06 -3.28,10.13 -2.15,2.97 -5.22,5.43 -9.21,7.17 -3.99,1.74 -8.91,2.66 -14.64,2.66 z"
     style="fill:#ffffff;fill-rule:nonzero" /><polygon
     id="_15"
     class="fil13"
     points="2256.59,2492.82 2266.21,2492.82 2266.21,2564.46 2256.59,2564.46 "
     style="fill:#ffffff;fill-rule:nonzero" /><polygon
     id="_16"
     class="fil13"
     points="2345.02,2492.82 2345.02,2564.46 2335.61,2564.46 2297.12,2508.69 2297.12,2564.46 2287.71,2564.46 2287.71,2492.82 2297.12,2492.82 2335.61,2548.6 2335.61,2492.82 "
     style="fill:#ffffff;fill-rule:nonzero" /><polygon
     id="_17"
     class="fil13"
     points="2382.18,2501.21 2357.31,2501.21 2357.31,2492.82 2416.67,2492.82 2416.67,2501.21 2391.8,2501.21 2391.8,2564.46 2382.18,2564.46 "
     style="fill:#ffffff;fill-rule:nonzero" /><polygon
     id="_18"
     class="fil13"
     points="2428.95,2492.82 2475.01,2492.82 2475.01,2501.21 2438.57,2501.21 2438.57,2523.42 2471.94,2523.42 2471.94,2531.81 2438.57,2531.81 2438.57,2556.07 2475.01,2556.07 2475.01,2564.46 2428.95,2564.46 "
     style="fill:#ffffff;fill-rule:nonzero" /><path
     id="_19"
     class="fil13"
     d="m 2518,2565.49 c -5.63,0 -10.75,-1.23 -15.56,-3.79 -4.71,-2.56 -8.49,-6.45 -11.36,-11.77 -2.87,-5.42 -4.3,-12.28 -4.3,-20.78 v -2.05 c 0,-6.14 0.82,-11.46 2.46,-15.86 1.64,-4.4 3.89,-8.09 6.76,-10.95 2.96,-2.87 6.24,-5.02 10.03,-6.35 3.79,-1.43 7.78,-2.15 11.98,-2.15 3.48,0 6.76,0.51 9.72,1.54 2.97,0.92 5.73,2.35 8.08,4.2 2.35,1.84 4.4,4.09 6.04,6.76 1.74,2.66 2.97,5.63 3.79,9 h -10.24 c -0.92,-2.96 -2.35,-5.42 -4.19,-7.37 -1.74,-1.94 -3.79,-3.28 -6.04,-4.2 -2.35,-0.92 -4.71,-1.33 -7.17,-1.33 -3.69,0 -7.17,0.82 -10.34,2.56 -3.17,1.74 -5.83,4.5 -7.78,8.5 -1.94,3.89 -2.86,9.11 -2.86,15.66 v 2.05 c 0,5.22 0.61,9.52 1.84,13.1 1.23,3.58 2.87,6.34 4.81,8.49 2.05,2.15 4.3,3.79 6.76,4.71 2.56,0.92 5.02,1.43 7.57,1.43 3.79,0 7.17,-0.72 9.93,-2.05 2.87,-1.43 5.11,-3.69 6.85,-6.65 1.74,-3.07 2.87,-7.06 3.17,-11.87 h -17.91 v -8.19 h 27.12 v 3.07 c 0,5.53 -0.72,10.44 -2.05,14.74 -1.33,4.19 -3.28,7.78 -5.83,10.74 -2.56,2.87 -5.63,5.02 -9.21,6.55 -3.58,1.54 -7.57,2.25 -12.08,2.25 z"
     style="fill:#ffffff;fill-rule:nonzero" /><path
     id="_20"
     class="fil13"
     d="m 2563.03,2564.46 v -71.65 h 25.07 c 6.04,0 10.95,0.92 14.94,2.87 3.99,1.84 7.06,4.4 9.11,7.68 2.05,3.17 3.07,6.86 3.07,10.95 0,4.81 -1.43,9.01 -4.2,12.59 -2.87,3.58 -7.06,6.04 -12.59,7.47 l 18.83,30.09 h -11.36 l -17.09,-28.86 h -16.17 v 28.86 h -9.62 z m 9.62,-37.05 h 14.43 c 6.65,0 11.36,-1.23 14.23,-3.58 2.86,-2.46 4.3,-5.63 4.3,-9.52 0,-3.89 -1.43,-7.06 -4.3,-9.52 -2.87,-2.35 -7.57,-3.58 -14.23,-3.58 h -14.43 z"
     style="fill:#ffffff;fill-rule:nonzero" /><path
     id="_21"
     class="fil13"
     d="m 2624.44,2564.46 27.43,-71.65 h 9.62 l 27.43,71.65 h -10.44 l -6.85,-17.81 h -30.3 l -6.85,17.81 h -10.03 z m 20.06,-26.2 h 23.95 l -11.98,-33.16 -11.98,33.16 z"
     style="fill:#ffffff;fill-rule:nonzero" /><path
     id="_22"
     class="fil13"
     d="m 2701.2,2564.46 v -71.65 h 20.98 c 7.17,0 13.31,1.33 18.43,3.89 5.11,2.56 9,6.45 11.77,11.46 2.76,5.11 4.09,11.46 4.09,18.93 v 2.05 c 0,7.68 -1.43,14.13 -4.2,19.34 -2.76,5.22 -6.86,9.21 -12.18,11.87 -5.22,2.76 -11.57,4.09 -18.94,4.09 h -19.96 z m 9.62,-8.39 h 9.31 c 5.43,0 10.03,-0.92 13.92,-2.76 3.89,-1.84 6.86,-4.71 9,-8.7 2.15,-3.99 3.17,-9.11 3.17,-15.46 v -2.05 c 0,-6.14 -1.02,-11.06 -3.07,-14.84 -2.04,-3.79 -4.91,-6.65 -8.7,-8.39 -3.79,-1.74 -8.19,-2.66 -13.31,-2.66 h -10.34 v 54.86 z"
     style="fill:#ffffff;fill-rule:nonzero" /><path
     id="_23"
     class="fil13"
     d="m 2800.48,2565.49 c -4.09,0 -8.09,-0.72 -11.87,-2.05 -3.79,-1.43 -7.17,-3.58 -10.13,-6.55 -2.97,-2.97 -5.43,-6.65 -7.17,-11.26 -1.74,-4.61 -2.56,-10.03 -2.56,-16.48 v -2.05 c 0,-6.14 0.82,-11.46 2.56,-15.86 1.74,-4.4 4.2,-8.09 7.17,-10.95 2.96,-2.97 6.34,-5.12 10.13,-6.45 3.79,-1.33 7.78,-2.05 11.87,-2.05 4.09,0 7.98,0.72 11.77,2.05 3.78,1.33 7.26,3.48 10.23,6.45 2.97,2.87 5.32,6.55 7.06,10.95 1.74,4.4 2.66,9.72 2.66,15.86 v 2.05 c 0,6.45 -0.92,11.87 -2.66,16.48 -1.74,4.6 -4.09,8.29 -7.06,11.26 -2.97,2.97 -6.45,5.12 -10.23,6.55 -3.79,1.33 -7.68,2.05 -11.77,2.05 z m 0,-8.6 c 3.79,0 7.27,-0.92 10.44,-2.76 3.27,-1.84 5.93,-4.81 7.98,-8.9 2.05,-4.09 3.07,-9.42 3.07,-16.07 v -2.05 c 0,-6.24 -1.02,-11.36 -3.07,-15.25 -2.05,-3.99 -4.71,-6.86 -7.98,-8.7 -3.17,-1.84 -6.65,-2.76 -10.44,-2.76 -3.69,0 -7.17,0.92 -10.44,2.76 -3.28,1.84 -5.94,4.71 -7.98,8.7 -2.05,3.89 -3.07,9 -3.07,15.25 v 2.05 c 0,6.65 1.02,11.98 3.07,16.07 2.05,4.09 4.71,7.06 7.98,8.9 3.28,1.84 6.76,2.76 10.44,2.76 z"
     style="fill:#ffffff;fill-rule:nonzero" /></g></g>
</svg>
