<?xml version="1.0" encoding="UTF-8" standalone="no"?>
<!-- Created with Inkscape (http://www.inkscape.org/) -->

<svg
   version="1.1"
   id="svg1"
   width="30.007326"
   height="30.007326"
   viewBox="0 0 30.007326 30.007326"
   xmlns="http://www.w3.org/2000/svg"
   xmlns:svg="http://www.w3.org/2000/svg">
  <defs
     id="defs1" />
  <g
     id="g1">
    <path
       style="fill:#000000;stroke-width:1.46156"
       d="M 2.2556686,27.396589 C 0.95605011,27.067573 0.73969456,25.271097 1.9285941,24.680776 2.233533,24.529366 2.5441538,24.514368 6.1977912,24.474655 l 3.9403308,-0.04283 0.577408,-0.273521 c 1.437508,-0.680962 2.308022,-2.304695 2.054815,-3.83276 C 12.543289,18.955307 11.660758,17.888411 10.349463,17.398933 10.065145,17.292808 9.5155224,17.239954 8.2107864,17.19327 6.2156514,17.121885 5.6451728,16.990546 4.4417744,16.325548 3.6525149,15.889403 2.48641,14.739733 2.0197057,13.937616 1.338181,12.76629 1.0104222,11.158058 1.1853433,9.8436034 1.5516785,7.0907591 3.4564683,4.9282533 6.1044194,4.2589811 6.7339474,4.0998674 7.0655268,4.0877267 10.781603,4.0877267 h 3.999618 l 0.291061,0.1934251 c 0.675658,0.4490101 0.86142,1.4486877 0.385214,2.073027 -0.470509,0.6168681 -0.334872,0.5983045 -4.719758,0.6459663 -4.3287734,0.047048 -4.2096934,0.032798 -5.0558638,0.6050213 -2.1413297,1.4480653 -2.1245004,4.6843796 0.031554,6.0679146 0.7473815,0.479595 1.0319735,0.539884 2.8828248,0.610716 1.967723,0.07531 2.369522,0.158932 3.554864,0.739862 0.695684,0.340952 0.932941,0.517999 1.635083,1.220142 0.701693,0.701694 0.879469,0.939845 1.220555,1.635084 0.569886,1.161598 0.697297,1.71305 0.692698,2.998077 -0.0044,1.242667 -0.135473,1.834272 -0.635563,2.869589 -0.816376,1.690125 -2.379705,2.968268 -4.268332,3.489688 -0.617552,0.170496 -0.8886842,0.182852 -4.4692778,0.203684 -2.0965128,0.01213 -3.9282881,-0.0073 -4.0706112,-0.04333 z M 19.451274,27.291258 c -0.450552,-0.223019 -0.790047,-0.756023 -0.790047,-1.240363 0,-0.184826 1.001341,-5.341916 2.225205,-11.460202 2.464051,-12.3181904 2.26321,-11.5314251 3.032902,-11.8809563 0.466737,-0.2119539 0.792741,-0.2044551 1.254577,0.028857 0.419248,0.2117967 0.735807,0.6173635 0.81615,1.0456253 0.03553,0.1893936 -0.642749,3.7545488 -2.145291,11.276048 -1.208485,6.049498 -2.241304,11.150515 -2.295153,11.335593 -0.133644,0.45933 -0.554428,0.858321 -1.03204,0.978584 -0.533564,0.134347 -0.644268,0.125724 -1.066303,-0.08319 z m 7.6077,0.08069 c -0.657213,-0.188104 -1.045789,-0.70262 -1.044798,-1.383419 6.93e-4,-0.475535 0.109207,-0.734097 0.446449,-1.063818 0.664813,-0.649979 1.875831,-0.445356 2.26925,0.383429 0.544557,1.147174 -0.474749,2.406166 -1.670901,2.063808 z"
       id="path1" />
  </g>
</svg>
